<?xml version="1.0" encoding="utf-8"?>
<!-- Generator: Adobe Illustrator 16.0.0, SVG Export Plug-In . SVG Version: 6.00 Build 0)  -->
<!DOCTYPE svg PUBLIC "-//W3C//DTD SVG 1.1//EN" "http://www.w3.org/Graphics/SVG/1.1/DTD/svg11.dtd">
<svg version="1.1" id="Layer_1" xmlns="http://www.w3.org/2000/svg" xmlns:xlink="http://www.w3.org/1999/xlink" x="0px" y="0px"
	 width="460px" height="41px" viewBox="0 0 460 41" enable-background="new 0 0 460 41" xml:space="preserve">
<g>
	<path fill="#FFFFFF" d="M0.12,29.296l6.971-1.771c0.498,4.869,3.956,7.027,8.105,7.027c4.177,0,6.446-2.213,6.446-4.979
		c0-8.106-18.922-5.395-18.922-18.12c0-6.916,5.616-10.789,12.2-10.789c4.813,0,9.212,2.103,11.896,6.861l-5.837,3.568
		c-1.355-2.656-3.679-4.177-6.307-4.177c-2.767,0-4.924,1.688-4.924,4.177c0,7.359,18.922,4.869,18.922,17.844
		c0,7.386-6.114,11.84-13.583,11.84C8.17,40.776,1.365,36.987,0.12,29.296z"/>
	<path fill="#FFFFFF" d="M35.373,1.245h7.027v16.322h17.124V1.245h7.027v39.089h-7.027V24.012H42.399v16.322h-7.027V1.245z"/>
	<path fill="#FFFFFF" d="M73.865,20.775c0-10.651,5.948-20.112,18.867-20.112c12.919,0,18.867,9.461,18.867,20.112
		s-5.948,20.112-18.867,20.112C79.813,40.887,73.865,31.426,73.865,20.775z M104.185,20.775c0-7.359-3.071-13.86-11.453-13.86
		c-8.382,0-11.453,6.501-11.453,13.86c0,7.386,3.071,13.887,11.453,13.887C101.114,34.663,104.185,28.162,104.185,20.775z"/>
	<path fill="#FFFFFF" d="M114.736,28.162l6.916-0.802c0.277,3.845,2.075,7.027,6.28,7.027c5.09,0,6.169-2.96,6.169-8.05V7.69
		h-14.717V1.245h21.744v24.98c0,8.327-3.624,14.662-13.196,14.662C119.938,40.887,115.234,35.078,114.736,28.162z"/>
	<path fill="#FFFFFF" d="M150.432,1.245h7.027v39.089h-7.027V1.245z"/>
	<path fill="#FFFFFF" d="M180.318,25.091V1.245h6.999v23.044c0,6.308,1.66,9.821,7.94,9.821c6.307,0,7.939-3.513,7.939-9.821V1.245
		h7.027v23.57c0,9.848-4.481,16.073-14.966,16.073S180.318,34.663,180.318,25.091z"/>
	<path fill="#FFFFFF" d="M215.601,29.296l6.971-1.771c0.498,4.869,3.956,7.027,8.106,7.027c4.177,0,6.445-2.213,6.445-4.979
		c0-8.106-18.922-5.395-18.922-18.12c0-6.916,5.616-10.789,12.2-10.789c4.813,0,9.212,2.103,11.895,6.861l-5.837,3.568
		c-1.355-2.656-3.679-4.177-6.307-4.177c-2.767,0-4.924,1.688-4.924,4.177c0,7.359,18.922,4.869,18.922,17.844
		c0,7.386-6.113,11.84-13.583,11.84C223.65,40.776,216.845,36.987,215.601,29.296z"/>
	<path fill="#FFFFFF" d="M250.854,1.245h7.026v16.322h17.124V1.245h7.027v39.089h-7.027V24.012H257.88v16.322h-7.026V1.245z"/>
	<path fill="#FFFFFF" d="M292.112,1.245h7.026v39.089h-7.026V1.245z"/>
	<path fill="#FFFFFF" d="M318.784,25.091L304.122,1.245h8.493l9.738,17.096l9.82-17.096h8.548l-14.606,23.846v15.243h-7.331V25.091z
		"/>
	<path fill="#FFFFFF" d="M352.129,1.245h5.256l15.575,39.089h-7.58l-3.126-8.493h-14.967l-3.153,8.493h-7.663L352.129,1.245z
		 M360.041,25.838l-5.257-14.274L349.5,25.838H360.041z"/>
	<path fill="#FFFFFF" d="M418.007,1.245v39.089h-6.75V11.148l-9.683,25.783h-6.805l-9.683-25.783v29.186h-6.75V1.245h9.461
		l10.374,27.802l10.374-27.802H418.007z"/>
	<path fill="#FFFFFF" d="M439.046,1.245h5.256l15.575,39.089h-7.58l-3.126-8.493h-14.967l-3.153,8.493h-7.663L439.046,1.245z
		 M446.957,25.838l-5.256-14.274l-5.284,14.274H446.957z"/>
</g>
</svg>
