<svg fill="#000000" xmlns="http://www.w3.org/2000/svg"  viewBox="0 0 24 24" width="192px" height="192px"><path d="M 3 0 L 3 6 L 5 6 C 5.5641294 6 6 6.4358706 6 7 L 6 17 C 6 17.564129 5.5641294 18 5 18 L 3 18 L 3 24 L 22.005859 24 L 24.240234 13.726562 L 19.558594 13.726562 L 18.474609 17.291016 C 18.3453 17.716149 17.961942 17.999901 17.517578 18 L 13 18 C 12.435871 18 12 17.564129 12 17 L 12 15 L 13 15 C 13.521993 15 13.864386 15.018149 14 15.037109 L 14 16 L 18 16 L 18 8 L 14 8 L 14 8.9628906 C 13.864386 8.9818535 13.521993 9 13 9 L 12 9 L 12 7 C 12 6.4358706 12.435871 6 13 6 L 18 6 C 18.564129 6 19 6.4358706 19 7 L 19 8 L 22.847656 8 L 24.179688 0 L 12.199219 0 L 3 0 z"/></svg>