<?xml version="1.0" encoding="UTF-8" standalone="no"?>
<!DOCTYPE svg PUBLIC "-//W3C//DTD SVG 1.1//EN" "http://www.w3.org/Graphics/SVG/1.1/DTD/svg11.dtd">
<svg width="100%" height="100%" viewBox="0 0 192 192" version="1.1" xmlns="http://www.w3.org/2000/svg" xmlns:xlink="http://www.w3.org/1999/xlink" xml:space="preserve" xmlns:serif="http://www.serif.com/" style="fill-rule:evenodd;clip-rule:evenodd;stroke-linejoin:round;stroke-miterlimit:2;">
    <g transform="matrix(1,0,0,1,-4,0)">
        <path d="M24,0L24,48L40,48C44.513,48 48,51.487 48,56L48,136C48,140.513 44.513,144 40,144L24,144L24,192L176.047,192L193.922,109.812L156.469,109.812L147.797,138.328C146.762,141.729 143.696,143.999 140.141,144L104,144C99.487,144 96,140.513 96,136L96,120L104,120C108.176,120 110.915,120.145 112,120.297L112,128L144,128L144,64L112,64L112,71.703C110.915,71.855 108.176,72 104,72L96,72L96,56C96,51.487 99.487,48 104,48L144,48C148.513,48 152,51.487 152,56L152,64L182.781,64L193.438,0L24,0Z" style="fill:white;fill-rule:nonzero;"/>
    </g>
</svg>
