<?xml version="1.0" encoding="UTF-8" standalone="no"?>
<!DOCTYPE svg PUBLIC "-//W3C//DTD SVG 1.1//EN" "http://www.w3.org/Graphics/SVG/1.1/DTD/svg11.dtd">
<svg version="1.1" xmlns="http://www.w3.org/2000/svg" xmlns:xlink="http://www.w3.org/1999/xlink" preserveAspectRatio="xMidYMid meet" viewBox="0 0 640 640" width="640" height="640"><defs><path d="M346.23 1.06L359.13 2.37L371.88 4.19L384.46 6.51L396.86 9.31L409.08 12.58L421.1 16.33L432.91 20.52L444.51 25.16L455.88 30.24L467.01 35.74L477.89 41.65L488.51 47.97L498.86 54.68L508.94 61.78L518.72 69.24L528.2 77.07L537.38 85.25L546.23 93.77L554.75 102.62L562.93 111.8L570.76 121.28L578.22 131.06L585.32 141.14L592.03 151.49L598.35 162.11L604.26 172.99L609.76 184.12L614.84 195.49L619.48 207.09L623.67 218.9L627.42 230.92L630.69 243.14L633.49 255.54L635.81 268.12L637.63 280.87L638.94 293.77L639.73 306.82L640 320L639.73 333.18L638.94 346.23L637.63 359.13L635.81 371.88L633.49 384.46L630.69 396.86L627.42 409.08L623.67 421.1L619.48 432.91L614.84 444.51L609.76 455.88L604.26 467.01L598.35 477.89L592.03 488.51L585.32 498.86L578.22 508.94L570.76 518.72L562.93 528.2L554.75 537.38L546.23 546.23L537.38 554.75L528.2 562.93L518.72 570.76L508.94 578.22L498.86 585.32L488.51 592.03L477.89 598.35L467.01 604.26L455.88 609.76L444.51 614.84L432.91 619.48L421.1 623.67L409.08 627.42L396.86 630.69L384.46 633.49L371.88 635.81L359.13 637.63L346.23 638.94L333.18 639.73L320 640L306.82 639.73L293.77 638.94L280.87 637.63L268.12 635.81L255.54 633.49L243.14 630.69L230.92 627.42L218.9 623.67L207.09 619.48L195.49 614.84L184.12 609.76L172.99 604.26L162.11 598.35L151.49 592.03L141.14 585.32L131.06 578.22L121.28 570.76L111.8 562.93L102.62 554.75L93.77 546.23L85.25 537.38L77.07 528.2L69.24 518.72L61.78 508.94L54.68 498.86L47.97 488.51L41.65 477.89L35.74 467.01L30.24 455.88L25.16 444.51L20.52 432.91L16.33 421.1L12.58 409.08L9.31 396.86L6.51 384.46L4.19 371.88L2.37 359.13L1.06 346.23L0.27 333.18L0 320L0.27 306.82L1.06 293.77L2.37 280.87L4.19 268.12L6.51 255.54L9.31 243.14L12.58 230.92L16.33 218.9L20.52 207.09L25.16 195.49L30.24 184.12L35.74 172.99L41.65 162.11L47.97 151.49L54.68 141.14L61.78 131.06L69.24 121.28L77.07 111.8L85.25 102.62L93.77 93.77L102.62 85.25L111.8 77.07L121.28 69.24L131.06 61.78L141.14 54.68L151.49 47.97L162.11 41.65L172.99 35.74L184.12 30.24L195.49 25.16L207.09 20.52L218.9 16.33L230.92 12.58L243.14 9.31L255.54 6.51L268.12 4.19L280.87 2.37L293.77 1.06L306.82 0.27L320 0L333.18 0.27L346.23 1.06ZM146.57 204.01L146.13 204.04L145.69 204.08L145.26 204.14L144.84 204.22L144.42 204.32L144 204.43L143.59 204.55L143.19 204.69L142.8 204.85L142.42 205.02L142.04 205.21L141.67 205.41L141.31 205.62L140.96 205.85L140.62 206.09L140.29 206.34L139.96 206.61L139.65 206.89L139.35 207.18L139.07 207.48L138.79 207.79L138.52 208.11L138.27 208.44L138.03 208.78L137.8 209.13L137.59 209.49L137.39 209.86L137.2 210.24L137.03 210.62L136.87 211.01L136.73 211.42L136.6 211.82L136.49 212.24L136.4 212.66L136.32 213.08L136.26 213.52L136.21 213.95L136.19 214.4L136.18 214.84L136.18 423.74L136.19 424.25L136.22 424.75L136.27 425.24L136.34 425.73L136.43 426.21L136.53 426.69L136.66 427.16L136.8 427.62L136.96 428.07L137.14 428.51L137.34 428.95L137.55 429.38L137.77 429.79L138.01 430.2L138.27 430.6L138.54 430.98L138.83 431.36L139.13 431.72L139.44 432.07L139.77 432.41L140.11 432.74L140.46 433.05L140.82 433.35L141.2 433.64L141.58 433.91L141.98 434.16L142.39 434.41L142.8 434.63L143.23 434.84L143.66 435.04L144.11 435.21L144.56 435.38L145.02 435.52L145.49 435.64L145.96 435.75L146.45 435.84L146.94 435.91L147.43 435.96L147.93 435.99L148.44 436L314.61 436L314.87 436L315.14 436L315.41 435.99L315.68 435.98L315.94 435.97L316.21 435.96L316.48 435.94L316.74 435.92L317.01 435.9L317.27 435.88L317.54 435.86L317.8 435.83L318.07 435.8L318.33 435.77L318.6 435.73L318.86 435.69L319.13 435.66L319.39 435.61L319.65 435.57L319.91 435.52L320.18 435.47L320.44 435.42L320.7 435.37L320.96 435.31L321.22 435.26L321.48 435.2L321.74 435.13L322 435.07L322.25 435L322.51 434.93L322.77 434.86L323.02 434.79L323.28 434.71L323.53 434.63L323.79 434.55L324.04 434.47L324.3 434.38L324.55 434.29L324.8 434.2L325.05 434.11L325.16 434.07L325.27 434.02L325.38 433.97L325.49 433.92L325.6 433.87L325.7 433.82L325.81 433.76L325.91 433.7L326.01 433.64L326.11 433.58L326.21 433.52L326.31 433.45L326.41 433.38L326.5 433.31L326.6 433.24L326.69 433.16L326.78 433.09L326.87 433.01L326.96 432.92L327.05 432.84L327.14 432.75L327.23 432.67L327.31 432.58L327.39 432.48L327.48 432.39L327.56 432.29L327.64 432.19L327.72 432.09L327.8 431.99L327.87 431.88L327.95 431.78L328.02 431.67L328.09 431.56L328.17 431.44L328.24 431.33L328.31 431.21L328.37 431.09L328.44 430.97L328.51 430.84L328.57 430.71L328.7 430.44L328.83 430.16L328.94 429.89L329.05 429.61L329.14 429.33L329.23 429.05L329.3 428.77L329.37 428.48L329.43 428.2L329.48 427.92L329.52 427.63L329.55 427.35L329.57 427.06L329.58 426.77L329.58 426.48L329.57 426.19L329.55 425.9L329.53 425.61L329.49 425.32L329.45 425.03L329.39 424.73L329.33 424.44L329.25 424.14L329.17 423.84L329.08 423.55L328.98 423.25L328.87 422.95L328.75 422.65L328.62 422.35L328.48 422.04L328.33 421.74L328.17 421.43L328 421.13L327.83 420.82L327.64 420.52L327.45 420.21L327.24 419.9L327.03 419.59L326.8 419.28L326.57 418.96L269.44 344.95L271.88 343.69L274.27 342.32L276.61 340.86L278.89 339.31L281.11 337.67L283.27 335.95L285.36 334.14L287.38 332.24L289.33 330.27L291.2 328.23L293.01 326.11L294.73 323.92L296.38 321.65L297.94 319.32L299.42 316.93L300.81 314.48L302.11 311.96L303.32 309.39L304.44 306.76L305.46 304.08L306.39 301.35L307.21 298.57L307.93 295.74L308.55 292.88L309.06 289.97L309.46 287.02L309.75 284.04L309.92 281.02L309.98 277.98L309.92 274.93L309.75 271.91L309.46 268.93L309.06 265.98L308.55 263.08L307.93 260.21L307.21 257.38L306.39 254.6L305.46 251.87L304.44 249.19L303.32 246.56L302.11 243.99L300.81 241.48L299.42 239.02L297.94 236.63L296.38 234.3L294.73 232.04L293.01 229.84L291.2 227.72L289.33 225.68L287.38 223.71L285.36 221.82L283.27 220.01L281.11 218.28L278.89 216.64L276.61 215.09L274.27 213.63L271.88 212.26L269.42 210.99L266.92 209.82L264.37 208.74L261.76 207.77L259.12 206.91L256.42 206.15L253.69 205.5L250.92 204.97L248.11 204.55L245.27 204.25L242.4 204.06L242.18 204.06L242.18 204L147.02 204L146.57 204.01ZM360.51 204.01L360.01 204.04L359.52 204.09L359.03 204.16L358.55 204.25L358.07 204.36L357.6 204.48L357.14 204.62L356.69 204.79L356.25 204.96L355.81 205.16L355.39 205.37L354.97 205.59L354.56 205.84L354.17 206.09L353.78 206.36L353.41 206.65L353.04 206.95L352.69 207.26L352.35 207.59L352.03 207.93L351.71 208.28L351.41 208.64L351.13 209.02L350.86 209.4L350.6 209.8L350.36 210.21L350.13 210.62L349.92 211.05L349.73 211.49L349.55 211.93L349.39 212.38L349.24 212.84L349.12 213.31L349.01 213.79L348.92 214.27L348.85 214.76L348.8 215.25L348.77 215.75L348.76 216.26L348.76 421.56L348.77 422.15L348.81 422.74L348.87 423.32L348.95 423.9L349.06 424.47L349.18 425.03L349.33 425.58L349.5 426.12L349.69 426.65L349.9 427.18L350.13 427.69L350.37 428.19L350.64 428.68L350.93 429.16L351.23 429.63L351.55 430.09L351.89 430.53L352.24 430.96L352.61 431.37L352.99 431.77L353.39 432.15L353.81 432.52L354.23 432.88L354.68 433.21L355.13 433.53L355.6 433.84L356.08 434.12L356.57 434.39L357.07 434.64L357.58 434.86L358.11 435.07L358.64 435.26L359.18 435.43L359.74 435.58L360.3 435.71L360.86 435.81L361.44 435.89L362.02 435.95L362.61 435.99L363.21 436L454.76 436L457.8 435.94L460.81 435.77L463.79 435.48L466.73 435.08L469.63 434.57L472.49 433.96L475.31 433.24L478.09 432.42L480.81 431.5L483.49 430.48L486.11 429.37L488.68 428.16L491.19 426.86L493.64 425.48L496.03 424.01L498.35 422.45L500.61 420.81L502.8 419.09L504.91 417.3L506.95 415.43L508.92 413.49L510.81 411.48L512.61 409.4L514.33 407.25L515.97 405.04L517.52 402.77L518.98 400.44L520.34 398.05L521.61 395.61L522.78 393.12L523.85 390.57L524.82 387.98L525.68 385.35L526.44 382.67L527.09 379.94L527.62 377.19L528.04 374.39L528.34 371.56L528.53 368.7L528.59 365.81L528.53 362.91L528.34 360.05L528.04 357.22L527.62 354.43L527.09 351.67L526.44 348.95L525.68 346.27L524.82 343.63L523.85 341.04L522.78 338.49L521.61 336L520.34 333.56L518.98 331.17L517.52 328.84L515.97 326.57L514.33 324.36L512.61 322.22L510.81 320.13L508.92 318.12L506.95 316.18L504.91 314.31L502.8 312.52L500.61 310.8L498.35 309.16L496.03 307.61L495.52 307.3L496.53 305.9L497.8 303.98L499.02 302L500.16 299.96L501.24 297.88L502.25 295.74L503.19 293.55L504.06 291.32L504.85 289.04L505.57 286.72L506.21 284.36L506.77 281.96L507.24 279.52L507.64 277.05L507.95 274.55L508.17 272.01L508.31 269.45L508.36 266.86L508.31 264.27L508.17 261.71L507.95 259.17L507.64 256.67L507.24 254.2L506.77 251.76L506.21 249.36L505.57 247L504.85 244.68L504.06 242.4L503.19 240.17L502.25 237.98L501.24 235.85L500.16 233.76L499.02 231.72L497.8 229.75L496.53 227.82L495.19 225.96L493.79 224.16L492.34 222.42L490.83 220.75L489.26 219.14L487.64 217.6L485.97 216.14L484.25 214.74L482.48 213.42L480.67 212.18L478.81 211.02L476.91 209.94L474.96 208.94L472.98 208.03L470.97 207.21L468.91 206.47L466.83 205.83L464.71 205.28L462.56 204.82L460.38 204.47L458.18 204.21L455.95 204.05L454.76 204.03L454.76 204L361.02 204L360.51 204.01Z" id="jGuEBK1vB"></path></defs><g><g><g><use xlink:href="#jGuEBK1vB" opacity="1" fill="#ffffff" fill-opacity="1"></use></g></g></g></svg>