<?xml version="1.0" encoding="UTF-8" standalone="no"?>
<!DOCTYPE svg PUBLIC "-//W3C//DTD SVG 1.1//EN" "http://www.w3.org/Graphics/SVG/1.1/DTD/svg11.dtd">
<svg version="1.1" xmlns="http://www.w3.org/2000/svg" xmlns:xlink="http://www.w3.org/1999/xlink" preserveAspectRatio="xMidYMid meet" viewBox="0 0 640 640" width="640" height="640"><defs><path d="M302.9 495.2L301.55 496.02L300.2 496.82L298.86 497.6L297.53 498.37L296.2 499.12L294.88 499.86L293.57 500.57L292.27 501.28L290.97 501.96L289.68 502.63L288.42 503.26L206.63 503.26L205.45 502.06L204.26 500.75L203.13 499.38L202.06 497.96L201.04 496.49L200.08 494.97L199.18 493.4L198.34 491.79L197.55 490.13L196.82 488.42L196.16 486.66L195.55 484.87L195 483.03L194.51 481.14L193.7 477.17L193.21 473.34L193.03 469.66L193.14 466.12L193.54 462.72L194.22 459.46L195.17 456.34L196.37 453.35L197.82 450.49L199.51 447.75L201.41 445.15L203.54 442.66L205.86 440.3L208.38 438.06L211.08 435.93L213.95 433.91L216.99 432.01L220.17 430.22L223.5 428.53L226.95 426.94L230.52 425.45L234.21 424.07L237.99 422.78L241.85 421.58L245.8 420.48L249.81 419.46L253.87 418.53L257.99 417.68L262.13 416.91L266.3 416.23L270.49 415.62L274.67 415.08L278.85 414.61L283.01 414.22L287.15 413.89L291.24 413.62L295.28 413.41L299.27 413.27L303.18 413.18L307.01 413.14L307.01 492.64L305.64 493.51L304.27 494.36L304.27 494.36L302.9 495.2ZM556.31 284.01L557.98 345.35L637.28 339.86L637.01 341.75L635.62 349.33L633.93 356.81L631.96 364.17L629.71 371.41L627.18 378.53L624.39 385.52L621.33 392.37L618.02 399.07L614.46 405.63L610.65 412.03L606.61 418.27L602.34 424.34L597.84 430.23L593.13 435.94L588.2 441.47L583.07 446.8L577.74 451.93L572.21 456.86L566.5 461.57L560.61 466.07L554.54 470.34L548.3 474.38L541.9 478.18L535.35 481.75L528.64 485.06L521.79 488.11L514.8 490.91L507.69 493.44L500.44 495.69L493.08 497.66L485.6 499.35L478.02 500.74L470.34 501.84L462.56 502.63L454.7 503.1L446.75 503.26L391.24 503.26L391.24 319L391.14 315.89L390.95 312.82L390.68 309.81L390.31 306.85L389.85 303.94L389.31 301.08L388.68 298.28L387.96 295.53L387.15 292.83L386.26 290.18L385.28 287.59L384.22 285.06L383.07 282.57L381.84 280.14L380.52 277.77L379.11 275.45L377.63 273.19L376.06 270.98L374.4 268.83L372.67 266.73L370.85 264.69L368.95 262.71L366.96 260.78L364.9 258.91L362.76 257.1L360.53 255.35L358.23 253.66L355.84 252.02L353.38 250.44L350.84 248.92L348.21 247.46L345.51 246.06L342.74 244.72L339.88 243.44L336.95 242.22L333.94 241.07L330.85 239.97L327.69 238.93L324.45 237.96L321.14 237.04L317.89 236.22L314.56 235.46L311.16 234.74L307.68 234.08L304.13 233.48L300.51 232.93L296.81 232.43L293.04 231.99L289.2 231.6L285.28 231.27L281.29 230.99L277.23 230.76L273.09 230.59L268.88 230.47L264.59 230.4L260.23 230.39L255.8 230.44L251.3 230.53L246.72 230.69L242.07 230.89L237.34 231.15L232.54 231.46L227.67 231.83L222.72 232.25L217.7 232.73L212.61 233.26L207.44 233.84L202.2 234.48L196.89 235.17L191.5 235.91L186.04 236.71L180.5 237.57L174.89 238.47L169.21 239.43L163.46 240.45L157.63 241.52L151.73 242.64L145.75 243.82L139.7 245.05L133.58 246.34L126.91 308.34L135.71 306.49L144.3 304.78L152.67 303.2L160.81 301.75L168.74 300.43L176.45 299.25L183.94 298.19L191.22 297.27L198.27 296.48L205.11 295.83L211.73 295.3L218.13 294.91L224.31 294.65L230.27 294.52L236.01 294.53L241.54 294.66L246.84 294.93L251.93 295.33L256.8 295.86L261.45 296.53L265.89 297.32L270.1 298.25L274.09 299.31L277.87 300.5L281.43 301.83L284.77 303.28L287.89 304.87L290.79 306.59L293.48 308.44L295.94 310.43L298.19 312.54L300.22 314.79L302.03 317.17L303.62 319.68L304.99 322.33L306.15 325.11L307.08 328.01L307.8 331.06L308.3 334.23L308.58 337.53L308.58 339.55L308.59 341.45L308.59 343.22L308.6 344.88L308.6 346.44L308.6 347.88L308.61 349.23L308.61 350.47L308.61 351.63L308.61 352.69L308.61 353.67L308.61 354.57L308.61 355.39L308.61 356.15L308.61 356.83L308.61 357.46L308.61 358.02L308.61 358.53L308.61 358.99L308.61 359.4L308.61 359.77L308.61 360.11L308.6 360.41L308.6 360.68L308.6 360.93L308.6 361.16L308.6 361.37L308.59 361.58L308.59 361.77L308.59 361.96L308.59 362.16L308.59 362.35L308.58 362.56L308.58 362.79L308.58 363.03L308.58 363.29L308.58 363.59L308.58 363.91L308.58 364.27L308.58 364.67L302.02 364.98L295.34 365.33L288.53 365.75L281.63 366.24L274.65 366.81L267.6 367.47L260.51 368.22L253.39 369.08L246.25 370.05L239.12 371.15L232.01 372.37L224.95 373.75L217.94 375.27L211 376.95L204.16 378.8L197.42 380.82L190.81 383.03L184.35 385.44L178.05 388.05L171.92 390.88L165.99 393.93L160.28 397.21L154.79 400.73L149.55 404.5L144.58 408.52L139.89 412.82L135.5 417.39L131.43 422.24L127.69 427.39L124.3 432.84L121.28 438.61L118.65 444.69L116.42 451.11L114.61 457.86L113.24 464.96L112.33 472.42L111.89 480.24L111.94 488.44L112.5 497.03L113.25 503.26L-0.46 503.26L-0.46 313.63L-0.31 306.02L0.15 298.48L0.91 291.03L1.95 283.67L3.29 276.41L4.91 269.25L6.8 262.19L8.95 255.25L11.37 248.43L14.05 241.74L16.98 235.17L20.15 228.75L23.57 222.47L27.21 216.34L31.08 210.36L35.17 204.55L39.48 198.9L44 193.43L48.72 188.13L53.64 183.03L58.74 178.11L64.04 173.39L69.51 168.87L75.16 164.56L80.97 160.47L86.95 156.6L93.08 152.96L99.36 149.54L105.79 146.37L112.35 143.44L119.04 140.76L125.86 138.34L132.8 136.18L139.86 134.29L147.02 132.68L154.28 131.34L161.64 130.3L169.1 129.54L176.63 129.08L184.24 128.93L437.08 128.93L426.31 192.35L494.98 214.68L496.31 281.68L496.31 281.68L556.31 284.01Z" id="a1iL0yxCnT"></path></defs><g><g><g><use xlink:href="#a1iL0yxCnT" opacity="1" fill="#ffffff" fill-opacity="1"></use></g></g></g></svg>