<?xml version="1.0" encoding="UTF-8" standalone="no"?>
<!DOCTYPE svg PUBLIC "-//W3C//DTD SVG 1.1//EN" "http://www.w3.org/Graphics/SVG/1.1/DTD/svg11.dtd">
<svg version="1.1" xmlns="http://www.w3.org/2000/svg" xmlns:xlink="http://www.w3.org/1999/xlink" preserveAspectRatio="xMidYMid meet" viewBox="0 0 640 640" width="640" height="640"><defs><path d="M394.36 640.99C297.97 640.99 226.14 591.4 226.14 472.75C226.14 460.08 226.14 396.74 226.14 282.73L138.53 282.73C138.53 220.99 138.53 186.69 138.53 179.83C234.96 154.8 275.24 71.84 279.92 0C286.6 0 319.97 0 380.03 0L380.03 163.15L496.79 163.15L496.79 282.73L380.03 282.73C380.03 382 380.03 437.16 380.03 448.19C380.03 497.79 405.04 514.93 444.91 514.93C448.68 514.93 467.53 514.93 501.47 514.93L501.47 640.99L394.36 640.99" id="aHLfJO6U"></path></defs><g><g><g><use xlink:href="#aHLfJO6U" opacity="1" fill="#ffffff" fill-opacity="1"></use><g><use xlink:href="#aHLfJO6U" opacity="1" fill-opacity="0" stroke="#f30000" stroke-width="3" stroke-opacity="0"></use></g></g></g></g></svg>