<?xml version="1.0" encoding="UTF-8" standalone="no"?>
<!DOCTYPE svg PUBLIC "-//W3C//DTD SVG 1.1//EN" "http://www.w3.org/Graphics/SVG/1.1/DTD/svg11.dtd">
<svg version="1.1" xmlns="http://www.w3.org/2000/svg" xmlns:xlink="http://www.w3.org/1999/xlink" preserveAspectRatio="xMidYMid meet" viewBox="0 0 640 640" width="640" height="640"><defs><path d="M264.79 268.6L266.12 268.74L267.43 268.95L268.73 269.21L270.01 269.52L271.27 269.88L272.51 270.3L273.73 270.77L274.92 271.29L276.09 271.85L277.23 272.46L278.35 273.12L279.44 273.82L280.51 274.57L281.54 275.36L282.54 276.19L283.52 277.06L284.45 277.97L285.36 278.92L286.23 279.9L287.06 280.92L287.86 281.98L288.62 283.06L289.34 284.18L290.02 285.33L290.66 286.51L291.26 287.72L291.81 288.95L292.32 290.22L292.78 291.5L293.2 292.81L293.57 294.14L293.89 295.5L294.16 296.87L294.38 298.26L294.54 299.67L294.66 301.1L294.72 302.54L294.72 304L294.69 305.46L294.61 306.9L294.48 308.33L294.3 309.74L294.07 311.13L293.78 312.5L293.45 313.86L293.08 315.19L292.65 316.5L292.19 317.78L291.67 319.05L291.12 320.28L290.52 321.49L289.88 322.67L289.2 323.82L288.48 324.94L287.73 326.02L286.93 327.08L286.1 328.1L285.24 329.08L284.34 330.03L283.41 330.94L282.44 331.81L281.45 332.64L280.42 333.43L279.37 334.18L278.28 334.88L277.17 335.54L276.04 336.15L274.88 336.72L273.69 337.23L272.48 337.7L271.25 338.12L269.99 338.48L268.72 338.79L267.43 339.05L266.11 339.26L264.79 339.4L263.44 339.49L262.08 339.52L260.74 339.49L259.42 339.4L258.11 339.26L256.81 339.05L255.53 338.79L254.27 338.48L253.03 338.12L251.8 337.7L250.6 337.23L249.42 336.72L248.26 336.15L247.13 335.54L246.02 334.88L244.93 334.18L243.88 333.43L242.85 332.64L241.85 331.81L240.88 330.94L239.94 330.03L239.04 329.08L238.17 328.1L237.33 327.08L236.53 326.02L235.77 324.94L235.04 323.82L234.36 322.67L233.71 321.49L233.1 320.28L232.54 319.05L232.02 317.79L231.54 316.5L231.11 315.19L230.73 313.86L230.39 312.5L230.11 311.13L229.87 309.74L229.68 308.33L229.55 306.9L229.47 305.46L229.44 304L229.47 302.54L229.55 301.1L229.68 299.67L229.86 298.26L230.09 296.87L230.38 295.5L230.71 294.14L231.08 292.81L231.51 291.5L231.98 290.22L232.49 288.95L233.04 287.72L233.64 286.51L234.28 285.33L234.96 284.18L235.68 283.06L236.43 281.98L237.23 280.92L238.06 279.9L238.92 278.92L239.82 277.97L240.75 277.06L241.72 276.19L242.71 275.36L243.74 274.57L244.79 273.82L245.88 273.12L246.99 272.46L248.12 271.85L249.29 271.28L250.47 270.77L251.68 270.3L252.91 269.88L254.17 269.52L255.44 269.21L256.73 268.95L258.05 268.74L259.37 268.6L260.72 268.51L262.08 268.48L263.44 268.51L264.79 268.6Z" id="b1QW4fApsw"></path><path d="M539.77 0.22L542.41 0.49L545.02 0.86L547.6 1.34L550.14 1.91L552.64 2.58L555.11 3.35L557.53 4.22L559.91 5.17L562.23 6.21L564.52 7.34L566.75 8.56L568.92 9.86L571.05 11.24L573.11 12.7L575.12 14.23L577.06 15.84L578.94 17.53L580.76 19.28L582.51 21.1L584.19 22.99L585.79 24.94L587.32 26.96L588.78 29.03L590.15 31.16L591.45 33.35L592.66 35.59L593.79 37.89L594.84 40.23L595.79 42.62L596.65 45.06L597.42 47.53L598.09 50.05L598.66 52.61L599.14 55.21L599.51 57.84L599.78 60.5L599.95 63.2L600 65.92L600 640L531.2 579.2L492.48 543.36L451.52 505.28L468.48 564.48L105.6 564.48L102.9 564.43L100.23 564.26L97.59 563.99L94.98 563.62L92.4 563.14L89.86 562.57L87.36 561.9L84.89 561.13L82.47 560.26L80.1 559.31L77.77 558.27L75.48 557.14L73.25 555.92L71.08 554.62L68.95 553.24L66.89 551.78L64.88 550.25L62.94 548.64L61.06 546.95L59.24 545.2L57.49 543.38L55.81 541.49L54.21 539.54L52.68 537.52L51.22 535.45L49.85 533.32L48.55 531.13L47.34 528.89L46.21 526.59L45.17 524.25L44.21 521.86L43.35 519.42L42.58 516.95L41.91 514.43L41.34 511.87L40.86 509.27L40.49 506.64L40.22 503.98L40.05 501.28L40 498.56L40 65.92L40.05 63.2L40.22 60.5L40.49 57.84L40.86 55.21L41.34 52.61L41.91 50.05L42.58 47.53L43.35 45.06L44.21 42.62L45.17 40.23L46.21 37.89L47.34 35.59L48.55 33.35L49.85 31.16L51.22 29.03L52.68 26.96L54.21 24.94L55.81 22.99L57.49 21.1L59.24 19.28L61.06 17.53L62.94 15.84L64.88 14.23L66.89 12.7L68.95 11.24L71.08 9.86L73.25 8.56L75.48 7.34L77.77 6.21L80.1 5.17L82.47 4.22L84.89 3.35L87.36 2.58L89.86 1.91L92.4 1.34L94.98 0.86L97.59 0.49L100.23 0.22L102.9 0.05L105.6 0L534.4 0L537.1 0.05L539.77 0.22ZM368.32 154.24L372.35 155.5L376.26 156.79L380.07 158.09L383.77 159.42L387.36 160.76L390.85 162.12L394.23 163.48L397.5 164.86L400.66 166.23L403.72 167.61L406.67 168.99L409.52 170.36L412.26 171.72L414.9 173.07L417.44 174.41L419.87 175.73L422.2 177.04L424.42 178.32L426.54 179.57L428.56 180.8L430.48 182L432.29 183.16L434.01 184.28L435.62 185.37L437.13 186.41L438.54 187.4L439.86 188.35L441.07 189.25L442.18 190.09L443.2 190.87L444.12 191.59L444.94 192.25L445.66 192.84L446.28 193.37L446.81 193.82L447.24 194.19L447.57 194.49L447.81 194.7L447.95 194.84L448 194.88L445.51 193.53L443.01 192.21L440.52 190.93L438.04 189.68L435.55 188.47L433.07 187.29L430.6 186.14L428.12 185.02L425.65 183.93L423.19 182.88L420.72 181.86L418.26 180.87L415.81 179.9L413.36 178.97L410.91 178.07L408.47 177.2L406.04 176.36L403.61 175.54L401.18 174.76L398.76 174L396.34 173.27L393.94 172.57L391.53 171.89L389.13 171.24L386.74 170.62L384.35 170.02L381.97 169.45L379.6 168.9L377.23 168.38L374.88 167.88L372.52 167.41L370.18 166.96L367.84 166.53L365.51 166.12L363.18 165.74L360.87 165.38L358.56 165.05L356.26 164.73L353.96 164.43L351.68 164.16L349.95 163.97L348.23 163.8L346.51 163.64L344.8 163.49L343.09 163.35L341.38 163.22L339.68 163.1L337.98 163L336.29 162.9L334.61 162.82L332.92 162.75L331.25 162.69L329.58 162.63L327.91 162.59L326.25 162.56L324.6 162.54L322.95 162.53L321.31 162.53L319.67 162.54L318.04 162.56L316.42 162.59L314.8 162.63L313.19 162.67L311.59 162.73L310 162.8L308.41 162.87L306.83 162.96L305.26 163.05L303.69 163.15L302.14 163.26L300.59 163.38L299.05 163.5L297.51 163.64L295.99 163.78L294.48 163.93L292.97 164.09L291.47 164.26L289.99 164.43L288.51 164.61L287.04 164.8L286.9 164.8L286.75 164.8L286.61 164.81L286.47 164.81L286.33 164.81L286.2 164.82L286.06 164.83L285.92 164.84L285.79 164.84L285.65 164.86L285.52 164.87L285.38 164.88L285.25 164.89L285.11 164.9L284.98 164.92L284.85 164.93L284.72 164.95L284.58 164.97L284.45 164.98L284.32 165L284.19 165.02L284.06 165.04L283.92 165.06L283.79 165.08L283.66 165.1L283.53 165.12L283.39 165.14L283.26 165.16L283.12 165.18L282.99 165.21L282.85 165.23L282.72 165.25L282.58 165.27L282.44 165.3L282.17 165.34L282.03 165.37L281.89 165.39L281.74 165.42L281.6 165.44L280.73 165.52L279.8 165.61L278.81 165.71L277.77 165.83L276.67 165.97L275.51 166.11L274.3 166.28L273.03 166.46L271.71 166.66L270.34 166.88L268.92 167.12L267.44 167.38L265.92 167.65L264.34 167.95L262.72 168.28L261.05 168.62L259.34 168.99L257.58 169.38L255.77 169.8L253.92 170.24L252.03 170.71L250.09 171.21L248.11 171.73L246.1 172.28L244.04 172.87L241.94 173.48L239.81 174.12L237.63 174.79L235.42 175.5L233.18 176.24L230.9 177.01L228.59 177.82L226.24 178.66L223.86 179.54L221.45 180.46L219.01 181.41L216.54 182.4L214.04 183.42L211.51 184.49L208.96 185.6L208.08 186L207.22 186.4L206.38 186.8L205.55 187.18L204.75 187.56L203.96 187.93L203.2 188.3L202.45 188.65L201.72 189L201.02 189.35L200.33 189.68L199.66 190L199.01 190.32L198.39 190.63L197.78 190.93L197.2 191.22L196.64 191.5L196.1 191.77L195.58 192.03L195.08 192.28L194.61 192.52L194.15 192.75L193.72 192.97L193.32 193.18L192.93 193.38L192.57 193.56L192.23 193.74L191.92 193.9L191.63 194.06L191.37 194.2L191.12 194.32L190.91 194.44L190.71 194.54L190.55 194.63L190.41 194.7L190.29 194.77L190.2 194.82L190.13 194.85L190.08 194.88L190.13 194.83L190.28 194.69L190.53 194.47L190.88 194.16L191.33 193.76L191.89 193.29L192.54 192.74L193.3 192.12L194.16 191.43L195.13 190.67L196.2 189.85L197.37 188.97L198.65 188.03L200.03 187.04L201.52 186L203.12 184.92L204.82 183.79L206.62 182.61L208.54 181.4L210.56 180.16L212.69 178.88L214.93 177.58L217.28 176.25L219.73 174.9L222.3 173.54L224.98 172.15L227.76 170.76L230.66 169.35L233.67 167.94L236.79 166.53L240.02 165.12L243.37 163.71L246.83 162.31L250.4 160.92L254.09 159.54L257.89 158.18L261.8 156.84L265.83 155.52L269.98 154.22L274.24 152.96L271.04 149.12L270.96 149.12L270.72 149.12L270.32 149.12L269.77 149.13L269.07 149.15L268.22 149.18L267.24 149.23L266.11 149.3L264.86 149.39L263.47 149.51L261.96 149.66L260.33 149.85L258.58 150.07L256.71 150.33L254.74 150.64L252.66 150.99L250.48 151.4L248.2 151.86L245.82 152.38L243.36 152.96L240.81 153.6L238.18 154.32L235.46 155.1L232.68 155.96L229.82 156.9L226.9 157.92L223.91 159.03L220.86 160.22L217.76 161.51L214.61 162.89L211.41 164.37L208.17 165.95L204.88 167.64L201.56 169.44L198.21 171.35L194.84 173.38L191.43 175.53L188.01 177.8L184.57 180.19L181.12 182.72L181.04 182.88L180.79 183.34L180.38 184.1L179.83 185.16L179.14 186.51L178.32 188.14L177.38 190.05L176.33 192.23L175.17 194.68L173.92 197.38L172.58 200.34L171.17 203.54L169.68 206.99L168.14 210.67L166.54 214.58L164.9 218.71L163.23 223.06L161.52 227.63L159.81 232.39L158.08 237.36L156.35 242.52L154.64 247.87L152.93 253.39L151.26 259.1L149.62 264.97L148.02 271.01L146.48 277.2L144.99 283.54L143.58 290.03L142.24 296.66L140.99 303.42L139.83 310.31L138.78 317.32L137.84 324.45L137.02 331.68L136.33 339.02L135.78 346.45L135.37 353.98L135.12 361.59L135.04 369.28L135.09 369.37L135.24 369.62L135.5 370.02L135.86 370.58L136.33 371.28L136.91 372.11L137.6 373.06L138.4 374.12L139.32 375.3L140.35 376.57L141.49 377.92L142.76 379.36L144.14 380.87L145.65 382.45L147.27 384.08L149.03 385.76L150.91 387.47L152.92 389.22L155.05 390.98L157.32 392.76L159.72 394.54L162.26 396.32L164.93 398.09L167.73 399.83L170.68 401.55L173.77 403.22L177 404.85L180.37 406.43L183.89 407.94L187.56 409.38L191.37 410.73L195.33 412L199.45 413.17L203.72 414.24L208.14 415.19L212.72 416.01L217.46 416.71L222.36 417.26L227.42 417.67L232.64 417.92L232.66 417.89L232.73 417.81L232.83 417.68L232.98 417.5L233.17 417.28L233.39 417L233.65 416.69L233.95 416.33L234.28 415.92L234.64 415.48L235.03 415L235.46 414.48L235.91 413.93L236.39 413.34L236.89 412.72L237.42 412.07L237.97 411.39L238.55 410.69L239.15 409.96L239.76 409.2L240.39 408.42L241.04 407.62L241.71 406.8L242.39 405.96L243.08 405.11L243.78 404.24L244.49 403.35L245.22 402.46L245.94 401.55L246.68 400.64L247.42 399.72L248.16 398.79L248.91 397.86L249.66 396.93L250.4 395.99L251.15 395.06L251.89 394.13L252.62 393.2L253.36 392.28L254.08 391.36L251.08 390.42L248.17 389.44L245.36 388.41L242.64 387.35L240.01 386.25L237.46 385.11L235.01 383.95L232.65 382.76L230.37 381.56L228.19 380.33L226.08 379.09L224.06 377.84L222.13 376.59L220.27 375.33L218.5 374.07L216.81 372.82L215.2 371.57L213.67 370.34L212.22 369.12L210.84 367.92L209.54 366.74L208.32 365.59L207.16 364.48L206.09 363.39L205.08 362.34L204.15 361.33L203.29 360.37L202.5 359.46L201.77 358.6L201.12 357.79L200.53 357.04L200 356.36L199.54 355.74L199.15 355.2L198.82 354.72L198.55 354.33L198.34 354.02L198.2 353.79L198.11 353.65L198.08 353.6L198.1 353.62L198.13 353.64L198.18 353.67L198.23 353.7L198.29 353.75L198.37 353.8L198.46 353.86L198.56 353.93L198.67 354L198.79 354.08L198.93 354.17L199.07 354.27L199.23 354.37L199.4 354.48L199.58 354.59L199.76 354.72L199.97 354.84L200.18 354.98L200.4 355.12L200.63 355.27L200.88 355.42L201.13 355.58L201.4 355.74L201.67 355.91L201.96 356.09L202.26 356.27L202.56 356.45L202.88 356.64L203.21 356.84L203.55 357.04L203.9 357.25L204.25 357.46L204.62 357.67L205 357.89L205.39 358.11L205.79 358.34L206.2 358.57L206.61 358.8L207.04 359.04L207.09 359.09L207.11 359.11L207.14 359.14L207.16 359.16L207.19 359.18L207.21 359.21L207.23 359.23L207.26 359.26L207.29 359.28L207.31 359.3L207.34 359.33L207.36 359.35L207.39 359.38L207.42 359.4L207.44 359.42L207.47 359.45L207.5 359.47L207.53 359.5L207.56 359.52L207.59 359.54L207.62 359.57L207.65 359.59L207.69 359.62L207.72 359.64L207.75 359.66L207.79 359.69L207.82 359.71L207.86 359.74L207.9 359.76L207.93 359.78L207.97 359.81L208.01 359.83L208.05 359.86L208.09 359.88L208.14 359.9L208.18 359.93L208.23 359.95L208.27 359.98L208.32 360L208.39 360.05L208.46 360.09L208.54 360.14L208.61 360.18L208.68 360.23L208.75 360.27L208.82 360.31L208.9 360.35L208.97 360.39L209.04 360.43L209.11 360.47L209.18 360.51L209.26 360.54L209.33 360.58L209.4 360.62L209.47 360.66L209.54 360.69L209.62 360.73L209.69 360.76L209.83 360.84L209.9 360.87L209.98 360.91L210.05 360.94L210.12 360.98L210.19 361.02L210.26 361.06L210.34 361.09L210.41 361.13L210.48 361.17L210.55 361.21L210.62 361.25L210.7 361.29L210.77 361.33L210.84 361.37L210.91 361.42L210.98 361.46L211.06 361.51L211.13 361.55L211.2 361.6L211.8 361.93L212.4 362.26L213 362.59L213.6 362.92L214.2 363.24L214.8 363.55L215.4 363.87L215.99 364.18L216.59 364.48L217.19 364.79L217.79 365.08L218.38 365.38L218.98 365.67L219.57 365.96L220.17 366.25L220.76 366.54L221.35 366.82L221.94 367.09L222.53 367.37L223.12 367.64L223.71 367.91L224.29 368.17L224.88 368.44L225.46 368.7L226.04 368.95L226.62 369.21L227.2 369.46L227.78 369.71L228.36 369.95L228.93 370.2L229.5 370.44L230.07 370.67L230.64 370.91L231.21 371.14L231.77 371.37L232.33 371.6L232.89 371.82L233.45 372.04L234.01 372.26L234.56 372.48L235.55 372.86L236.55 373.25L237.56 373.63L238.57 374.01L239.6 374.4L240.64 374.78L241.68 375.16L242.74 375.54L243.8 375.92L244.88 376.3L245.96 376.67L247.06 377.04L248.16 377.42L249.28 377.79L250.4 378.16L251.53 378.52L252.68 378.89L253.83 379.25L254.99 379.6L256.16 379.96L257.34 380.31L258.53 380.66L259.73 381.01L260.94 381.35L262.16 381.69L263.39 382.02L264.63 382.36L265.88 382.68L267.13 383.01L268.4 383.33L269.68 383.64L270.96 383.95L272.26 384.25L273.56 384.55L274.88 384.85L276.2 385.14L277.54 385.42L278.88 385.7L280.24 385.97L281.6 386.24L283.41 386.57L285.23 386.89L287.07 387.2L288.92 387.49L290.79 387.78L292.68 388.05L294.57 388.3L296.49 388.55L298.41 388.78L300.36 388.99L302.31 389.19L304.28 389.37L306.26 389.54L308.26 389.69L310.27 389.83L312.29 389.95L314.33 390.05L316.38 390.13L318.44 390.19L320.52 390.24L322.61 390.27L324.71 390.27L326.82 390.26L328.95 390.23L331.08 390.17L333.23 390.1L335.39 390L337.57 389.88L339.75 389.74L341.95 389.57L344.15 389.38L346.37 389.17L348.6 388.93L350.83 388.67L353.08 388.38L355.34 388.07L357.61 387.73L359.89 387.37L362.18 386.98L364.48 386.56L365.61 386.36L366.74 386.16L367.87 385.95L369 385.73L370.14 385.51L371.27 385.28L372.41 385.04L373.54 384.79L374.68 384.54L375.83 384.28L376.97 384.01L378.11 383.73L379.26 383.44L380.4 383.15L381.55 382.85L382.7 382.55L383.85 382.23L385.01 381.91L386.16 381.58L387.32 381.24L388.48 380.89L389.64 380.54L390.8 380.18L391.97 379.81L393.13 379.43L394.3 379.05L395.47 378.65L396.64 378.25L397.82 377.84L398.99 377.43L400.17 377L401.35 376.57L402.54 376.12L403.72 375.67L404.91 375.22L406.1 374.75L407.29 374.27L408.48 373.79L409.68 373.3L410.88 372.8L411.72 372.48L412.57 372.16L413.42 371.83L414.28 371.49L415.14 371.15L416 370.8L416.87 370.44L417.75 370.07L418.63 369.69L419.51 369.31L420.4 368.92L421.29 368.52L422.18 368.11L423.08 367.7L423.99 367.28L424.89 366.85L425.8 366.41L426.72 365.96L427.64 365.5L428.56 365.04L429.49 364.57L430.42 364.09L431.35 363.6L432.28 363.1L433.22 362.59L434.17 362.08L435.11 361.55L436.06 361.02L437.01 360.48L437.97 359.93L438.93 359.37L439.89 358.8L440.85 358.22L441.82 357.64L442.79 357.04L443.76 356.44L444.74 355.82L445.72 355.2L446.7 354.56L447.68 353.92L447.65 353.97L447.56 354.11L447.41 354.35L447.19 354.67L446.91 355.07L446.57 355.55L446.16 356.11L445.68 356.74L445.14 357.44L444.53 358.21L443.84 359.03L443.09 359.91L442.27 360.84L441.37 361.82L440.41 362.85L439.37 363.91L438.25 365.02L437.06 366.16L435.79 367.33L434.44 368.52L433.01 369.74L431.51 370.97L429.92 372.22L428.26 373.48L426.51 374.75L424.68 376.02L422.76 377.29L420.76 378.55L418.67 379.81L416.5 381.06L414.23 382.28L411.88 383.49L409.44 384.68L406.91 385.84L404.28 386.96L401.57 388.06L398.76 389.11L395.85 390.12L392.86 391.09L389.76 392L390.48 392.91L391.18 393.8L391.88 394.68L392.57 395.54L393.25 396.39L393.92 397.23L394.58 398.06L395.24 398.87L395.88 399.67L396.52 400.45L397.14 401.22L397.76 401.98L398.36 402.73L398.96 403.46L399.55 404.18L400.12 404.88L400.69 405.58L401.25 406.26L401.8 406.92L402.34 407.58L402.86 408.22L403.38 408.84L403.89 409.46L404.39 410.06L404.87 410.65L405.35 411.22L405.81 411.78L406.27 412.33L406.71 412.87L407.15 413.39L407.57 413.9L407.98 414.4L408.38 414.89L408.77 415.36L409.15 415.82L409.52 416.26L409.88 416.7L410.22 417.12L410.56 417.52L410.88 417.92L416.1 417.67L421.16 417.26L426.06 416.71L430.81 416.01L435.39 415.19L439.82 414.24L444.1 413.17L448.22 412L452.19 410.73L456.02 409.38L459.69 407.94L463.22 406.43L466.6 404.85L469.84 403.22L472.94 401.55L475.9 399.83L478.72 398.09L481.4 396.32L483.95 394.54L486.36 392.76L488.64 390.98L490.79 389.22L492.81 387.47L494.7 385.76L496.46 384.08L498.1 382.45L499.62 380.87L501.02 379.36L502.29 377.92L503.45 376.57L504.48 375.3L505.41 374.12L506.21 373.06L506.91 372.11L507.49 371.28L507.97 370.58L508.33 370.02L508.59 369.62L508.75 369.37L508.8 369.28L508.72 361.59L508.47 353.98L508.06 346.45L507.51 339.02L506.82 331.68L506 324.45L505.06 317.32L504.01 310.31L502.85 303.42L501.6 296.66L500.26 290.03L498.85 283.54L497.36 277.2L495.82 271.01L494.22 264.97L492.58 259.1L490.91 253.39L489.2 247.87L487.49 242.52L485.76 237.36L484.03 232.39L482.32 227.63L480.61 223.06L478.94 218.71L477.3 214.58L475.7 210.67L474.16 206.99L472.67 203.54L471.26 200.34L469.92 197.38L468.67 194.68L467.51 192.23L466.46 190.05L465.52 188.14L464.7 186.51L464.01 185.16L463.46 184.1L463.05 183.34L462.8 182.88L462.72 182.72L459.27 180.19L455.83 177.8L452.41 175.53L449 173.38L445.63 171.35L442.28 169.44L438.96 167.64L435.67 165.95L432.43 164.37L429.23 162.89L426.08 161.51L422.98 160.22L419.93 159.03L416.94 157.92L414.02 156.9L411.16 155.96L408.38 155.1L405.66 154.32L403.03 153.6L400.48 152.96L398.02 152.38L395.64 151.86L393.36 151.4L391.18 150.99L389.1 150.64L387.13 150.33L385.26 150.07L383.51 149.85L381.88 149.66L380.37 149.51L378.98 149.39L377.73 149.3L376.6 149.23L375.62 149.18L374.77 149.15L374.07 149.13L373.52 149.12L373.12 149.12L372.88 149.12L372.8 149.12L368.32 154.24Z" id="avQFq6TMG"></path><path d="M383.83 268.6L385.15 268.74L386.47 268.95L387.76 269.21L389.03 269.52L390.29 269.88L391.52 270.3L392.73 270.77L393.92 271.28L395.08 271.85L396.21 272.46L397.32 273.12L398.41 273.82L399.46 274.57L400.49 275.36L401.48 276.19L402.45 277.06L403.38 277.97L404.28 278.92L405.14 279.9L405.97 280.92L406.77 281.98L407.52 283.06L408.24 284.18L408.92 285.33L409.56 286.51L410.16 287.72L410.71 288.95L411.23 290.22L411.69 291.5L412.12 292.81L412.49 294.14L412.82 295.5L413.11 296.87L413.34 298.26L413.52 299.67L413.65 301.1L413.73 302.54L413.76 304L413.73 305.46L413.65 306.9L413.52 308.33L413.33 309.74L413.09 311.13L412.81 312.5L412.47 313.86L412.09 315.19L411.66 316.5L411.18 317.79L410.66 319.05L410.1 320.28L409.49 321.49L408.84 322.67L408.16 323.82L407.43 324.94L406.67 326.02L405.87 327.08L405.03 328.1L404.16 329.08L403.26 330.03L402.32 330.94L401.35 331.81L400.35 332.64L399.32 333.43L398.27 334.18L397.18 334.88L396.07 335.54L394.94 336.15L393.78 336.72L392.6 337.23L391.4 337.7L390.17 338.12L388.93 338.48L387.67 338.79L386.39 339.05L385.09 339.26L383.78 339.4L382.46 339.49L381.12 339.52L379.76 339.49L378.41 339.4L377.09 339.26L375.77 339.05L374.48 338.79L373.21 338.48L371.95 338.12L370.72 337.7L369.51 337.23L368.33 336.72L367.16 336.15L366.03 335.54L364.92 334.88L363.83 334.18L362.78 333.43L361.75 332.64L360.76 331.81L359.79 330.94L358.86 330.03L357.96 329.08L357.1 328.1L356.27 327.08L355.47 326.02L354.72 324.94L354 323.82L353.32 322.67L352.68 321.49L352.08 320.28L351.53 319.05L351.02 317.78L350.55 316.5L350.12 315.19L349.75 313.86L349.42 312.5L349.13 311.13L348.9 309.74L348.72 308.33L348.59 306.9L348.51 305.46L348.48 304L348.48 302.54L348.54 301.1L348.66 299.67L348.82 298.26L349.04 296.87L349.31 295.5L349.63 294.14L350 292.81L350.42 291.5L350.88 290.22L351.39 288.95L351.94 287.72L352.54 286.51L353.18 285.33L353.86 284.18L354.58 283.06L355.34 281.98L356.14 280.92L356.97 279.9L357.84 278.92L358.75 277.97L359.68 277.06L360.66 276.19L361.66 275.36L362.69 274.57L363.76 273.82L364.85 273.12L365.97 272.46L367.11 271.85L368.28 271.29L369.47 270.77L370.69 270.3L371.93 269.88L373.19 269.52L374.47 269.21L375.77 268.95L377.08 268.74L378.41 268.6L379.76 268.51L381.12 268.48L382.48 268.51L383.83 268.6Z" id="j12FTjJv3K"></path></defs><g><g><g><use xlink:href="#b1QW4fApsw" opacity="1" fill="#ffffff" fill-opacity="1"></use><g><use xlink:href="#b1QW4fApsw" opacity="1" fill-opacity="0" stroke="#000000" stroke-width="1" stroke-opacity="0"></use></g></g><g><use xlink:href="#avQFq6TMG" opacity="1" fill="#ffffff" fill-opacity="1"></use><g><use xlink:href="#avQFq6TMG" opacity="1" fill-opacity="0" stroke="#000000" stroke-width="1" stroke-opacity="0"></use></g></g><g><use xlink:href="#j12FTjJv3K" opacity="1" fill="#ffffff" fill-opacity="1"></use><g><use xlink:href="#j12FTjJv3K" opacity="1" fill-opacity="0" stroke="#000000" stroke-width="1" stroke-opacity="0"></use></g></g></g></g></svg>