<?xml version="1.0" encoding="utf-8"?>
<!-- Generator: Adobe Illustrator 16.0.0, SVG Export Plug-In . SVG Version: 6.00 Build 0)  -->
<!DOCTYPE svg PUBLIC "-//W3C//DTD SVG 1.1//EN" "http://www.w3.org/Graphics/SVG/1.1/DTD/svg11.dtd">
<svg version="1.1" id="Layer_1" xmlns="http://www.w3.org/2000/svg" xmlns:xlink="http://www.w3.org/1999/xlink" x="0px" y="0px"
	 width="460px" height="107px" viewBox="0 0 460 107" enable-background="new 0 0 460 107" xml:space="preserve">
<g>
	<path fill="#FFFFFF" d="M-0.172,68.093V60.41h51.437V29.853H21.118c-5.24,9.541-9.814,16.657-13.724,21.349l-6.745-3.93
		c4.379-5.826,8.749-13.128,13.108-21.906c4.359-8.777,7.379-16.334,9.061-22.668l9.091,1.936
		c-2.074,6.686-4.38,12.649-6.921,17.888h26.275V0h9.795v22.522h43.518v7.331H61.059V60.41h47.683v7.684H61.059v39.119h-9.795
		V68.093H-0.172z"/>
	<path fill="#FFFFFF" d="M124.577,106.04V23.342h9.325v68.387h34.193V4.634h9.443v87.095h34.779V23.108h9.326v82.463h-9.326v-6.861
		h-78.415v7.33H124.577z"/>
	<path fill="#FFFFFF" d="M239.238,78.534l-3.344-7.978c6.881-3.206,14.975-8.073,24.281-14.604V1.056h9.15v106.392h-9.15V65.395
		C252.551,70.948,245.572,75.327,239.238,78.534z M244.457,43.929c-0.783-6.529-2.326-15.58-4.633-27.155l8.797-1.466
		c1.135,4.498,2.66,13.548,4.574,27.155L244.457,43.929z M277.654,14.898l-1.174-6.979c30.771-1.291,52.648-3.363,65.629-6.218
		l3.813,6.863c-6.568,1.29-17.418,2.609-32.551,3.958C298.24,13.871,286.334,14.663,277.654,14.898z M325.982,106.098h-16.188
		l-1.115-8.211l13.078-0.116c1.252,0,2.424-0.42,3.52-1.262c1.094-0.841,1.643-1.827,1.643-2.961V64.281H276.48v-7.097h50.439
		v-11.26h9.441v11.26h13.373v7.097h-13.373v33.078c0,2.699-0.977,4.829-2.932,6.394
		C331.475,105.316,328.992,106.098,325.982,106.098z M284.164,46.92c-2.111-9.501-4.105-16.774-5.982-21.818l8.563-2.111
		c2.465,6.842,4.457,14.154,5.982,21.935L284.164,46.92z M297.771,93.197c-5.436-8.25-10.129-14.742-14.076-19.474l7.33-4.632
		c3.52,4.457,8.426,10.871,14.721,19.236L297.771,93.197z M305.982,40.762c-2.191-9.697-4.107-16.833-5.748-21.407l8.328-1.877
		c2.971,9.463,4.926,16.579,5.865,21.349L305.982,40.762z M327.799,45.572l-7.625-2.992c4.615-6.764,9.814-16.188,15.602-28.27
		l9.15,3.167C337.418,31.554,331.709,40.918,327.799,45.572z"/>
	<path fill="#FFFFFF" d="M449.674,106.745h-17.77l-1.115-8.564h14.721c1.602,0,2.941-0.448,4.018-1.349
		c1.076-0.899,1.613-1.953,1.613-3.167V13.138h-89.441V6.041h98.473v90.791c0,3.011-0.979,5.414-2.934,7.214
		C455.283,105.844,452.762,106.745,449.674,106.745z M364.865,34.838v-7.096h72.551v7.096H364.865z M381.172,86.041v6.158h-8.916
		V48.797h57.535v37.244H381.172z M420.523,55.659h-39.352V79.06h39.352V55.659z"/>
</g>
</svg>
