<?xml version="1.0" encoding="UTF-8" standalone="no"?>
<!DOCTYPE svg PUBLIC "-//W3C//DTD SVG 1.1//EN" "http://www.w3.org/Graphics/SVG/1.1/DTD/svg11.dtd">
<svg version="1.1" xmlns="http://www.w3.org/2000/svg" xmlns:xlink="http://www.w3.org/1999/xlink" preserveAspectRatio="xMidYMid meet" viewBox="-1.1719999999999997 -1 464.34499999999997 111.448" width="460.34" height="107.45"><defs><path d="M-0.17 60.41L51.27 60.41L51.27 29.85C33.18 29.85 23.13 29.85 21.12 29.85C15.88 39.39 11.3 46.51 7.39 51.2C6.72 50.81 1.32 47.67 0.65 47.27C5.03 41.45 9.4 34.14 13.76 25.37C18.12 16.59 21.14 9.03 22.82 2.7C23.73 2.89 31 4.44 31.91 4.63C29.84 11.32 27.53 17.28 24.99 22.52C26.74 22.52 35.5 22.52 51.26 22.52L51.26 0L61.06 0L61.06 22.52L104.58 22.52L104.58 29.85L61.06 29.85L61.06 60.41L108.74 60.41L108.74 68.09L61.06 68.09L61.06 107.21L51.26 107.21L51.26 68.09L-0.17 68.09L-0.17 60.41Z" id="cn4wnaY9R"></path><path d="M124.58 23.34L133.9 23.34L133.9 91.73L168.09 91.73L168.09 4.63L177.54 4.63L177.54 91.73L212.32 91.73L212.32 23.11L221.64 23.11L221.64 105.57L212.32 105.57L212.32 98.71L133.9 98.71L133.9 106.04L124.58 106.04L124.58 23.34Z" id="e1oNQwNOrT"></path><path d="M235.89 70.56C242.78 67.35 250.87 62.48 260.18 55.95C260.17 52.29 260.17 33.99 260.18 1.06L269.33 1.06L269.33 107.45L260.18 107.45C260.17 82.22 260.17 68.2 260.18 65.4C252.55 70.95 245.57 75.33 239.24 78.53C238.57 76.94 236.23 71.35 235.89 70.56Z" id="dmDzu03Bt"></path><path d="M431.9 106.75L430.79 98.18C439.62 98.18 444.53 98.18 445.51 98.18C447.11 98.18 448.45 97.73 449.53 96.83C450.6 95.93 451.14 94.88 451.14 93.67C451.14 88.3 451.14 61.45 451.14 13.14L361.7 13.14L361.7 6.04L460.17 6.04C460.17 60.52 460.17 90.78 460.17 96.83C460.17 99.84 459.19 102.25 457.24 104.05C455.28 105.84 452.76 106.75 449.67 106.75C447.3 106.74 441.38 106.74 431.9 106.75Z" id="g2E4DFh9hj"></path><path d="M278.18 25.1C279.04 24.89 285.89 23.2 286.74 22.99C289.21 29.83 291.2 37.14 292.73 44.93C292.16 45.06 289.3 45.72 284.16 46.92C281.43 35.74 279.43 28.46 278.18 25.1Z" id="b1nqQz4nD"></path><path d="M300.23 19.36C301.07 19.17 307.73 17.67 308.56 17.48C311.53 26.94 313.49 34.06 314.43 38.83C313.86 38.96 311.05 39.6 305.98 40.76C303.24 29.54 301.33 22.4 300.23 19.36Z" id="aVRR7oR3k"></path><path d="M320.17 42.58C324.79 35.82 329.99 26.39 335.78 14.31C336.69 14.63 344.01 17.16 344.93 17.48C337.42 31.55 331.71 40.92 327.8 45.57C326.27 44.97 320.94 42.88 320.17 42.58Z" id="f1iGIWZPHf"></path><path d="M276.48 7.92C307.25 6.63 329.13 4.56 342.11 1.7C342.49 2.39 345.54 7.88 345.92 8.56C339.35 9.85 328.5 11.17 313.37 12.52C298.24 13.87 286.33 14.66 277.65 14.9C277.42 13.5 276.6 8.62 276.48 7.92Z" id="a148ZVGCC2"></path><path d="M239.82 16.77C240.7 16.63 247.74 15.45 248.62 15.31C249.76 19.81 251.28 28.86 253.2 42.46C252.61 42.56 249.7 43.05 244.46 43.93C242.91 33.54 241.36 24.49 239.82 16.77Z" id="a3MouOR4q"></path><path d="M309.79 106.1L308.68 97.89C316.53 97.82 320.89 97.78 321.76 97.77C323.01 97.77 324.18 97.35 325.28 96.51C326.37 95.67 326.92 94.68 326.92 93.55C326.92 91.6 326.92 81.84 326.92 64.28L276.48 64.28L276.48 57.18L326.92 57.18L326.92 45.92L336.36 45.92L336.36 57.18L349.73 57.18L349.73 64.28L336.36 64.28C336.36 84.13 336.36 95.15 336.36 97.36C336.36 100.06 335.38 102.19 333.43 103.75C331.48 105.32 328.99 106.1 325.98 106.1C323.82 106.1 318.43 106.1 309.79 106.1Z" id="d4LsitPg8T"></path><path d="M283.7 73.72C284.43 73.26 290.29 69.55 291.02 69.09C294.54 73.55 299.45 79.96 305.75 88.33C305.21 88.65 302.56 90.28 297.77 93.2C291.02 83.37 286.33 76.88 283.7 73.72Z" id="c3zvgLAwWX"></path><path d="M364.87 27.74L437.42 27.74L437.42 34.84L364.87 34.84L364.87 27.74Z" id="ccoExHROK"></path><path d="M381.17 86.04L381.17 92.2L372.26 92.2L372.26 48.8L429.79 48.8L429.79 86.04L381.17 86.04ZM381.17 78.74L420.52 78.74L420.52 55.34L381.17 55.34L381.17 78.74Z" id="h1BuK3Grfy"></path></defs><g><g><use xlink:href="#cn4wnaY9R" opacity="1" fill="#000000" fill-opacity="1"></use></g><g><use xlink:href="#e1oNQwNOrT" opacity="1" fill="#000000" fill-opacity="1"></use></g><g><use xlink:href="#dmDzu03Bt" opacity="1" fill="#000000" fill-opacity="1"></use></g><g><use xlink:href="#g2E4DFh9hj" opacity="1" fill="#000000" fill-opacity="1"></use></g><g><use xlink:href="#b1nqQz4nD" opacity="1" fill="#000000" fill-opacity="1"></use><g><use xlink:href="#b1nqQz4nD" opacity="1" fill-opacity="0" stroke="#000000" stroke-width="1" stroke-opacity="0"></use></g></g><g><use xlink:href="#aVRR7oR3k" opacity="1" fill="#000000" fill-opacity="1"></use><g><use xlink:href="#aVRR7oR3k" opacity="1" fill-opacity="0" stroke="#000000" stroke-width="1" stroke-opacity="0"></use></g></g><g><use xlink:href="#f1iGIWZPHf" opacity="1" fill="#000000" fill-opacity="1"></use><g><use xlink:href="#f1iGIWZPHf" opacity="1" fill-opacity="0" stroke="#000000" stroke-width="1" stroke-opacity="0"></use></g></g><g><use xlink:href="#a148ZVGCC2" opacity="1" fill="#000000" fill-opacity="1"></use><g><use xlink:href="#a148ZVGCC2" opacity="1" fill-opacity="0" stroke="#000000" stroke-width="1" stroke-opacity="0"></use></g></g><g><use xlink:href="#a3MouOR4q" opacity="1" fill="#000000" fill-opacity="1"></use><g><use xlink:href="#a3MouOR4q" opacity="1" fill-opacity="0" stroke="#000000" stroke-width="1" stroke-opacity="0"></use></g></g><g><use xlink:href="#d4LsitPg8T" opacity="1" fill="#000000" fill-opacity="1"></use><g><use xlink:href="#d4LsitPg8T" opacity="1" fill-opacity="0" stroke="#000000" stroke-width="1" stroke-opacity="0"></use></g></g><g><use xlink:href="#c3zvgLAwWX" opacity="1" fill="#000000" fill-opacity="1"></use><g><use xlink:href="#c3zvgLAwWX" opacity="1" fill-opacity="0" stroke="#000000" stroke-width="1" stroke-opacity="0"></use></g></g><g><use xlink:href="#ccoExHROK" opacity="1" fill="#000000" fill-opacity="1"></use><g><use xlink:href="#ccoExHROK" opacity="1" fill-opacity="0" stroke="#000000" stroke-width="1" stroke-opacity="0"></use></g></g><g><use xlink:href="#h1BuK3Grfy" opacity="1" fill="#000000" fill-opacity="1"></use><g><use xlink:href="#h1BuK3Grfy" opacity="1" fill-opacity="0" stroke="#000000" stroke-width="1" stroke-opacity="0"></use></g></g></g></svg>