<?xml version="1.0" encoding="UTF-8" standalone="no"?>
<!DOCTYPE svg PUBLIC "-//W3C//DTD SVG 1.1//EN" "http://www.w3.org/Graphics/SVG/1.1/DTD/svg11.dtd">
<svg version="1.1" xmlns="http://www.w3.org/2000/svg" xmlns:xlink="http://www.w3.org/1999/xlink" preserveAspectRatio="xMidYMid meet" viewBox="-0.8800000000000008 -0.33699999999999974 463.757 44.22500000000001" width="459.76" height="40.23"><defs><path d="M7.09 27.53C7.59 32.39 11.05 34.55 15.2 34.55C19.37 34.55 21.64 32.34 21.64 29.57C21.64 21.47 2.72 24.18 2.72 11.45C2.72 4.54 8.34 0.66 14.92 0.66C19.73 0.66 24.13 2.77 26.82 7.53C26.23 7.88 21.56 10.74 20.98 11.09C19.62 8.44 17.3 6.92 14.67 6.92C11.91 6.92 9.75 8.6 9.75 11.09C9.75 18.45 28.67 15.96 28.67 28.94C28.67 36.32 22.56 40.78 15.09 40.78C8.17 40.78 1.37 36.99 0.12 29.3C1.51 28.94 6.39 27.7 7.09 27.53Z" id="b3Gnjs6it9"></path><path d="M42.4 1.25L42.4 17.57L59.52 17.57L59.52 1.25L66.55 1.25L66.55 40.33L59.52 40.33L59.52 24.01L42.4 24.01L42.4 40.33L35.37 40.33L35.37 1.25L42.4 1.25Z" id="e2ZjWwzYRP"></path><path d="M95.82 0.86L97.25 1.09L98.62 1.41L99.91 1.82L101.13 2.31L102.28 2.87L103.37 3.51L104.38 4.22L105.32 4.99L106.2 5.83L107.01 6.72L107.75 7.68L108.43 8.68L109.04 9.73L109.58 10.83L110.06 11.96L110.47 13.14L110.82 14.35L111.1 15.59L111.32 16.85L111.47 18.14L111.57 19.45L111.6 20.78L111.57 22.1L111.47 23.41L111.32 24.7L111.1 25.96L110.82 27.2L110.47 28.41L110.06 29.59L109.58 30.72L109.04 31.82L108.43 32.87L107.75 33.87L107.01 34.83L106.2 35.72L105.32 36.56L104.38 37.33L103.37 38.04L102.28 38.68L101.13 39.24L99.91 39.73L98.62 40.14L97.25 40.46L95.82 40.69L94.31 40.84L92.73 40.89L91.15 40.84L89.65 40.69L88.21 40.46L86.85 40.14L85.56 39.73L84.33 39.24L83.18 38.68L82.1 38.04L81.09 37.33L80.14 36.56L79.26 35.72L78.45 34.83L77.71 33.87L77.04 32.87L76.43 31.82L75.89 30.72L75.41 29.59L75 28.41L74.65 27.2L74.37 25.96L74.15 24.7L73.99 23.41L73.9 22.1L73.86 20.78L73.9 19.45L73.99 18.14L74.15 16.85L74.37 15.59L74.65 14.35L75 13.14L75.41 11.96L75.89 10.83L76.43 9.73L77.04 8.68L77.71 7.68L78.45 6.72L79.26 5.83L80.14 4.99L81.09 4.22L82.1 3.51L83.18 2.87L84.33 2.31L85.56 1.82L86.85 1.41L88.21 1.09L89.65 0.86L91.15 0.71L92.73 0.66L94.31 0.71L95.82 0.86ZM89.83 7.21L88.56 7.56L87.41 8.05L86.36 8.65L85.42 9.36L84.59 10.18L83.86 11.09L83.23 12.08L82.69 13.16L82.25 14.3L81.89 15.5L81.62 16.76L81.43 18.07L81.32 19.41L81.28 20.78L81.32 22.15L81.43 23.49L81.62 24.8L81.89 26.06L82.25 27.27L82.69 28.41L83.23 29.49L83.86 30.49L84.59 31.4L85.42 32.22L86.36 32.93L87.41 33.53L88.56 34.01L89.83 34.37L91.22 34.59L92.73 34.66L94.24 34.59L95.63 34.37L96.9 34.01L98.06 33.53L99.1 32.93L100.04 32.22L100.87 31.4L101.6 30.49L102.23 29.49L102.77 28.42L103.22 27.27L103.57 26.06L103.85 24.8L104.04 23.49L104.15 22.15L104.19 20.78L104.15 19.41L104.04 18.07L103.85 16.76L103.57 15.5L103.22 14.3L102.77 13.16L102.23 12.08L101.6 11.09L100.87 10.18L100.04 9.36L99.1 8.65L98.06 8.05L96.9 7.56L95.63 7.21L94.24 6.99L92.73 6.91L91.22 6.99L89.83 7.21Z" id="c25sRBPeze"></path><path d="M121.65 27.36C121.93 31.21 123.73 34.39 127.93 34.39C133.02 34.39 134.1 31.43 134.1 26.34C134.1 25.09 134.1 18.88 134.1 7.69L119.38 7.69L119.38 1.25L141.13 1.25C141.13 16.23 141.13 24.56 141.13 26.23C141.13 34.55 137.5 40.89 127.93 40.89C119.94 40.89 115.23 35.08 114.74 28.16C116.12 28 120.96 27.44 121.65 27.36Z" id="j1NUorCH6w"></path><path d="M157.46 1.25L157.46 40.33L150.43 40.33L150.43 1.25L157.46 1.25Z" id="a1c8cHlvP"></path><path d="M180.32 1.25L187.32 1.25C187.32 15.07 187.32 22.75 187.32 24.29C187.32 30.6 188.98 34.11 195.26 34.11C201.56 34.11 203.2 30.6 203.2 24.29C203.2 22.75 203.2 15.07 203.2 1.25L210.22 1.25C210.22 15.39 210.22 23.24 210.22 24.82C210.22 34.66 205.74 40.89 195.26 40.89C184.77 40.89 180.32 34.66 180.32 25.09C180.32 21.91 180.32 13.96 180.32 1.25Z" id="bKoSxBs46"></path><path d="M222.57 27.53C223.07 32.39 226.53 34.55 230.68 34.55C234.86 34.55 237.12 32.34 237.12 29.57C237.12 21.47 218.2 24.18 218.2 11.45C218.2 4.54 223.82 0.66 230.4 0.66C235.21 0.66 239.61 2.77 242.3 7.53C241.71 7.88 237.04 10.74 236.46 11.09C235.1 8.44 232.78 6.92 230.15 6.92C227.39 6.92 225.23 8.6 225.23 11.09C225.23 18.45 244.15 15.96 244.15 28.94C244.15 36.32 238.04 40.78 230.57 40.78C223.65 40.78 216.85 36.99 215.6 29.3C217 28.94 221.87 27.7 222.57 27.53Z" id="c1yNnD5eZz"></path><path d="M257.88 1.25L257.88 17.57L275 17.57L275 1.25L282.03 1.25L282.03 40.33L275 40.33L275 24.01L257.88 24.01L257.88 40.33L250.85 40.33L250.85 1.25L257.88 1.25Z" id="c22iwgsGNX"></path><path d="M299.14 1.25L299.14 40.33L292.11 40.33L292.11 1.25L299.14 1.25Z" id="aMwrlbXwX"></path><path d="M304.12 1.25L312.62 1.25L322.35 18.34L332.17 1.25L340.72 1.25L326.12 25.09L326.12 40.33L318.78 40.33L318.78 25.09L304.12 1.25Z" id="a11JZ5b1gm"></path><path d="M365.38 40.33L362.25 31.84L347.29 31.84L344.13 40.33L336.47 40.33L352.13 1.25L357.39 1.25L372.96 40.33L365.38 40.33ZM360.04 25.84L354.78 11.56L349.5 25.84L360.04 25.84Z" id="bxkzBExys"></path><path d="M418.01 40.33L411.26 40.33L411.26 11.15L401.57 36.93L394.77 36.93L385.09 11.15L385.09 40.33L378.34 40.33L378.34 1.25L387.8 1.25L398.17 29.05L408.55 1.25L418.01 1.25L418.01 40.33Z" id="i1ciSpjQ47"></path><path d="M452.3 40.33L449.17 31.84L434.2 31.84L431.05 40.33L423.39 40.33L439.05 1.25L444.3 1.25L459.88 40.33L452.3 40.33ZM446.96 25.84L441.7 11.56L436.42 25.84L446.96 25.84Z" id="b249TYzFqS"></path></defs><g><g><use xlink:href="#b3Gnjs6it9" opacity="1" fill="#000000" fill-opacity="1"></use></g><g><use xlink:href="#e2ZjWwzYRP" opacity="1" fill="#000000" fill-opacity="1"></use></g><g><use xlink:href="#c25sRBPeze" opacity="1" fill="#000000" fill-opacity="1"></use></g><g><use xlink:href="#j1NUorCH6w" opacity="1" fill="#000000" fill-opacity="1"></use></g><g><use xlink:href="#a1c8cHlvP" opacity="1" fill="#000000" fill-opacity="1"></use></g><g><use xlink:href="#bKoSxBs46" opacity="1" fill="#000000" fill-opacity="1"></use></g><g><use xlink:href="#c1yNnD5eZz" opacity="1" fill="#000000" fill-opacity="1"></use></g><g><use xlink:href="#c22iwgsGNX" opacity="1" fill="#000000" fill-opacity="1"></use></g><g><use xlink:href="#aMwrlbXwX" opacity="1" fill="#000000" fill-opacity="1"></use></g><g><use xlink:href="#a11JZ5b1gm" opacity="1" fill="#000000" fill-opacity="1"></use></g><g><use xlink:href="#bxkzBExys" opacity="1" fill="#000000" fill-opacity="1"></use></g><g><use xlink:href="#i1ciSpjQ47" opacity="1" fill="#000000" fill-opacity="1"></use></g><g><use xlink:href="#b249TYzFqS" opacity="1" fill="#000000" fill-opacity="1"></use></g></g></svg>