<?xml version="1.0" encoding="utf-8"?>
<!-- Generator: Adobe Illustrator 16.0.0, SVG Export Plug-In . SVG Version: 6.00 Build 0)  -->
<!DOCTYPE svg PUBLIC "-//W3C//DTD SVG 1.1 Tiny//EN" "http://www.w3.org/Graphics/SVG/1.1/DTD/svg11-tiny.dtd">
<svg version="1.1" baseProfile="tiny" id="Layer_1" xmlns="http://www.w3.org/2000/svg" xmlns:xlink="http://www.w3.org/1999/xlink"
	 x="0px" y="0px" width="460px" height="460px" viewBox="0 0 460 460" xml:space="preserve">
<path fill-rule="evenodd" fill="#FFFFFF" d="M410.792,116.168c-20.026,34.694-40.057,69.387-60.082,104.083
	c-0.461,0.799-0.881,1.622-1.517,2.797c33.752,0,67.063,0,100.721,0c0,2.812,0,5.198,0,7.584c0,0.704,0,1.407,0,2.355
	c-35.608,0-71.004,0-106.553,0c-17.088,29.597-34.109,59.077-51.362,88.959c-1.115-1.871-2.077-3.462-3.017-5.067
	c-0.926-1.583-1.827-3.181-2.802-4.881c15.096-26.16,30.178-52.295,45.44-78.745c-67.343,0-134.238,0-201.565,0
	c35.623,61.716,71.09,123.162,106.566,184.623c-1.896,3.283-3.726,6.451-5.785,10.016c-37.594-65.123-74.982-129.891-112.45-194.795
	c-35.476,0-70.89,0-106.5,0c0-3.354,0-6.494,0-9.935c33.427,0,66.808,0,100.762,0C76.034,159.728,39.297,96.137,3.016,33.28h455.473
	L410.792,116.168z M440.679,43.479c-139.951,0-279.87,0-420.173,0c34.646,60.021,69.124,119.748,103.619,179.508
	c71.33,0,142.332,0,213.434,0c34.279-59.39,69.354-120.17,103.598-179.508H440.679z"/>
</svg>
