<?xml version="1.0" encoding="UTF-8" standalone="no"?>
<!DOCTYPE svg PUBLIC "-//W3C//DTD SVG 1.1//EN" "http://www.w3.org/Graphics/SVG/1.1/DTD/svg11.dtd">
<svg version="1.1" xmlns="http://www.w3.org/2000/svg" xmlns:xlink="http://www.w3.org/1999/xlink" preserveAspectRatio="xMidYMid meet" viewBox="2.0160000000001705 32.28 459.473 398.6120000000001" width="455.47" height="394.61"><defs><path d="M408.8 119.62L406.84 123.02L404.9 126.38L402.98 129.7L401.09 132.97L399.23 136.2L397.39 139.39L395.57 142.54L393.78 145.64L392.02 148.69L390.28 151.71L388.56 154.68L386.87 157.61L385.21 160.49L383.57 163.33L381.95 166.13L380.36 168.88L378.8 171.59L377.26 174.26L375.74 176.88L374.25 179.46L372.79 182L371.35 184.49L369.94 186.94L368.55 189.35L367.18 191.71L365.84 194.03L364.53 196.31L363.24 198.54L361.97 200.73L360.74 202.88L359.52 204.98L358.33 207.04L357.17 209.06L356.03 211.03L354.92 212.96L353.83 214.85L352.76 216.69L351.72 218.49L350.71 220.25L350.68 220.31L350.64 220.37L350.61 220.43L350.57 220.49L350.54 220.55L350.5 220.61L350.47 220.67L350.44 220.74L350.4 220.8L350.37 220.86L350.33 220.92L350.3 220.99L350.26 221.05L350.23 221.11L350.2 221.18L350.16 221.24L350.12 221.31L350.09 221.37L350.05 221.44L350.02 221.51L349.98 221.58L349.94 221.65L349.91 221.72L349.87 221.79L349.83 221.86L349.75 222L349.71 222.08L349.67 222.15L349.63 222.23L349.59 222.3L349.55 222.38L349.51 222.46L349.47 222.54L349.42 222.62L349.38 222.71L349.33 222.79L349.29 222.87L349.24 222.96L349.19 223.05L449.91 223.05L449.91 232.99L343.36 232.99L342.08 235.21L340.8 237.43L339.52 239.64L338.24 241.86L336.96 244.08L335.67 246.3L334.39 248.52L333.11 250.74L331.83 252.95L330.55 255.17L329.27 257.39L327.99 259.61L326.71 261.82L325.43 264.04L324.15 266.26L322.87 268.48L321.59 270.7L320.31 272.92L319.02 275.14L317.74 277.36L316.46 279.58L315.18 281.8L313.89 284.02L312.61 286.25L311.33 288.47L310.04 290.7L308.76 292.92L307.47 295.15L306.19 297.37L303.61 301.83L301.04 306.29L297.17 312.99L295.88 315.23L294.59 317.47L292 321.95L291.92 321.81L291.83 321.67L291.75 321.53L291.67 321.39L291.59 321.26L291.51 321.12L291.43 320.99L291.35 320.85L291.27 320.72L291.19 320.59L291.11 320.46L291.03 320.33L290.88 320.07L290.8 319.94L290.73 319.82L290.65 319.69L290.57 319.56L290.5 319.44L290.42 319.31L290.35 319.19L290.28 319.06L290.2 318.94L290.13 318.82L290.06 318.69L289.98 318.57L289.91 318.45L289.84 318.33L289.77 318.21L289.69 318.08L289.62 317.96L289.55 317.84L289.48 317.72L289.41 317.6L289.34 317.48L289.26 317.36L289.19 317.24L289.12 317.12L289.05 317L288.98 316.88L288.91 316.76L288.84 316.64L288.77 316.52L288.7 316.4L288.64 316.28L288.57 316.17L288.5 316.05L288.43 315.93L288.36 315.81L288.29 315.69L288.22 315.57L288.15 315.45L288.08 315.33L288.01 315.21L287.95 315.09L287.88 314.97L287.81 314.85L287.74 314.72L287.67 314.6L287.6 314.48L287.53 314.36L287.46 314.24L287.39 314.12L287.32 313.99L287.25 313.87L287.18 313.75L287.04 313.5L286.97 313.38L286.9 313.26L286.83 313.13L286.76 313.01L286.69 312.88L286.61 312.76L286.54 312.63L286.47 312.51L286.4 312.38L286.33 312.25L286.25 312.13L286.18 312L287.31 310.04L288.44 308.07L289.58 306.11L290.71 304.15L291.84 302.19L294.11 298.26L296.37 294.34L297.5 292.38L298.64 290.41L299.77 288.45L300.9 286.49L302.03 284.52L303.17 282.56L304.3 280.6L305.43 278.63L306.57 276.67L307.7 274.7L308.84 272.73L309.97 270.77L311.11 268.8L312.24 266.83L313.38 264.86L314.52 262.89L315.65 260.92L316.79 258.95L317.93 256.98L319.07 255.01L320.2 253.04L321.34 251.06L322.48 249.09L323.62 247.11L324.76 245.14L325.9 243.16L327.05 241.18L328.19 239.2L329.33 237.22L330.48 235.24L331.62 233.25L130.06 233.25L132.73 237.88L135.4 242.51L138.07 247.13L140.74 251.76L143.41 256.38L146.08 261.01L148.74 265.63L151.41 270.25L154.08 274.87L156.75 279.49L162.08 288.73L167.41 297.97L170.07 302.58L172.74 307.2L175.4 311.82L178.07 316.43L180.73 321.05L183.39 325.66L186.06 330.27L188.72 334.89L191.38 339.5L194.04 344.11L196.71 348.72L199.37 353.34L202.03 357.95L204.69 362.56L207.35 367.17L210.01 371.78L212.67 376.39L215.34 381L218 385.61L220.66 390.22L223.32 394.83L225.98 399.44L228.64 404.05L231.3 408.66L233.96 413.27L236.62 417.88L236.48 418.12L236.2 418.61L235.91 419.1L235.77 419.35L235.49 419.84L235.21 420.32L234.78 421.06L234.22 422.04L233.79 422.78L232.78 424.52L232.49 425.03L232.05 425.8L231.75 426.31L231.3 427.1L231.14 427.36L230.84 427.89L228.02 423.01L225.2 418.13L222.38 413.25L219.56 408.37L216.75 403.49L213.93 398.61L211.12 393.73L208.3 388.86L205.49 383.98L202.67 379.11L199.86 374.24L197.05 369.36L194.24 364.49L191.43 359.62L188.61 354.75L180.18 340.15L177.37 335.28L174.56 330.41L171.75 325.55L168.95 320.68L166.14 315.81L163.33 310.95L160.52 306.08L157.71 301.22L154.9 296.35L152.09 291.49L149.28 286.62L146.48 281.76L143.67 276.89L140.86 272.03L138.05 267.16L135.24 262.3L132.43 257.43L129.62 252.56L126.82 247.7L124.01 242.83L121.2 237.96L118.39 233.1L11.89 233.1L11.89 223.16L112.65 223.16L109.9 218.4L107.16 213.65L104.41 208.89L101.66 204.13L98.91 199.37L96.17 194.61L93.42 189.85L90.67 185.09L87.92 180.33L85.17 175.57L82.43 170.81L79.68 166.05L76.93 161.29L74.18 156.54L71.44 151.78L68.69 147.02L65.94 142.27L63.2 137.51L60.45 132.76L57.71 128L54.96 123.25L52.22 118.5L49.48 113.75L46.74 109L43.99 104.26L41.25 99.51L38.51 94.77L35.78 90.03L33.04 85.29L30.3 80.55L27.57 75.81L24.83 71.08L22.1 66.34L19.37 61.61L16.64 56.88L13.91 52.16L11.19 47.43L8.46 42.71L5.74 38L3.02 33.28L458.49 33.28L410.79 116.17L408.8 119.62ZM25.7 52.48L28.3 56.98L30.89 61.48L33.49 65.97L36.09 70.47L38.68 74.96L41.27 79.46L43.87 83.95L46.46 88.44L49.05 92.94L51.65 97.43L54.24 101.92L56.83 106.41L59.42 110.9L62.01 115.38L64.6 119.87L69.78 128.84L72.37 133.33L74.96 137.82L77.55 142.3L80.14 146.79L82.73 151.27L85.32 155.75L87.9 160.24L90.49 164.72L93.08 169.2L95.67 173.69L98.25 178.17L100.84 182.65L103.43 187.13L106.02 191.61L108.6 196.1L111.19 200.58L113.78 205.06L116.36 209.54L118.95 214.02L121.54 218.51L124.13 222.99L337.56 222.99L340.13 218.53L342.71 214.07L345.28 209.6L347.86 205.13L350.45 200.66L353.03 196.18L355.62 191.69L358.21 187.21L360.8 182.72L363.39 178.23L365.99 173.73L368.58 169.24L371.18 164.74L373.77 160.24L376.37 155.74L378.97 151.23L381.57 146.73L384.17 142.22L386.77 137.72L389.37 133.21L391.97 128.71L394.57 124.2L397.17 119.7L399.77 115.2L402.37 110.69L404.97 106.19L407.56 101.69L410.16 97.2L412.75 92.7L415.34 88.21L417.93 83.72L420.52 79.23L423.11 74.75L425.7 70.27L428.28 65.79L430.86 61.32L433.44 56.85L436.01 52.39L438.59 47.93L441.16 43.48L20.51 43.48L23.1 47.98L25.7 52.48Z" id="b40B91GLh1"></path></defs><g><g><use xlink:href="#b40B91GLh1" opacity="1" fill="#000000" fill-opacity="1"></use></g></g></svg>