<?xml version="1.0" encoding="UTF-8" standalone="no"?>
<!DOCTYPE svg PUBLIC "-//W3C//DTD SVG 1.1//EN" "http://www.w3.org/Graphics/SVG/1.1/DTD/svg11.dtd">
<svg version="1.1" xmlns="http://www.w3.org/2000/svg" xmlns:xlink="http://www.w3.org/1999/xlink" preserveAspectRatio="xMidYMid meet" viewBox="0 0 640 640" width="640" height="640"><defs><path d="M346.24 1.06L359.15 2.37L371.91 4.19L384.49 6.5L396.9 9.3L409.12 12.57L421.14 16.31L432.96 20.51L444.56 25.15L455.93 30.22L467.06 35.72L477.94 41.63L488.56 47.94L498.92 54.65L508.99 61.74L518.77 69.2L528.25 77.03L537.42 85.21L546.27 93.73L554.79 102.58L562.97 111.75L570.8 121.23L578.26 131.01L585.35 141.08L592.06 151.44L598.37 162.06L604.28 172.94L609.78 184.07L614.85 195.44L619.49 207.04L623.69 218.86L627.43 230.88L630.7 243.1L633.5 255.51L635.81 268.09L637.63 280.85L638.94 293.76L639.73 306.81L640 320L639.73 333.19L638.94 346.24L637.63 359.15L635.81 371.91L633.5 384.49L630.7 396.9L627.43 409.12L623.69 421.14L619.49 432.96L614.85 444.56L609.78 455.93L604.28 467.06L598.37 477.94L592.06 488.56L585.35 498.92L578.26 508.99L570.8 518.77L562.97 528.25L554.79 537.42L546.27 546.27L537.42 554.79L528.25 562.97L518.77 570.8L508.99 578.26L498.92 585.35L488.56 592.06L477.94 598.37L467.06 604.28L455.93 609.78L444.56 614.85L432.96 619.49L421.14 623.69L409.12 627.43L396.9 630.7L384.49 633.5L371.91 635.81L359.15 637.63L346.24 638.94L333.19 639.73L320 640L306.81 639.73L293.76 638.94L280.85 637.63L268.09 635.81L255.51 633.5L243.1 630.7L230.88 627.43L218.86 623.69L207.04 619.49L195.44 614.85L184.07 609.78L172.94 604.28L162.06 598.37L151.44 592.06L141.08 585.35L131.01 578.26L121.23 570.8L111.75 562.97L102.58 554.79L93.73 546.27L85.21 537.42L77.03 528.25L69.2 518.77L61.74 508.99L54.65 498.92L47.94 488.56L41.63 477.94L35.72 467.06L30.22 455.93L25.15 444.56L20.51 432.96L16.31 421.14L12.57 409.12L9.3 396.9L6.5 384.49L4.19 371.91L2.37 359.15L1.06 346.24L0.27 333.19L0 320L0.27 306.81L1.06 293.76L2.37 280.85L4.19 268.09L6.5 255.51L9.3 243.1L12.57 230.88L16.31 218.86L20.51 207.04L25.15 195.44L30.22 184.07L35.72 172.94L41.63 162.06L47.94 151.44L54.65 141.08L61.74 131.01L69.2 121.23L77.03 111.75L85.21 102.58L93.73 93.73L102.58 85.21L111.75 77.03L121.23 69.2L131.01 61.74L141.08 54.65L151.44 47.94L162.06 41.63L172.94 35.72L184.07 30.22L195.44 25.15L207.04 20.51L218.86 16.31L230.88 12.57L243.1 9.3L255.51 6.5L268.09 4.19L280.85 2.37L293.76 1.06L306.81 0.27L320 0L333.19 0.27L346.24 1.06ZM425.72 208.78L424.08 208.96L422.38 209.19L420.61 209.49L418.77 209.84L416.87 210.26L414.89 210.73L412.85 211.26L410.75 211.84L408.57 212.48L406.34 213.16L404.03 213.9L401.61 214.7L399.01 215.57L396.25 216.5L393.34 217.49L390.29 218.54L387.11 219.64L383.81 220.79L380.41 221.99L376.91 223.22L373.32 224.49L369.66 225.79L365.94 227.11L362.16 228.46L358.34 229.83L354.49 231.22L350.62 232.61L346.73 234.01L342.85 235.42L338.98 236.82L335.13 238.21L331.32 239.6L327.55 240.97L323.83 242.32L320.18 243.65L316.61 244.95L313.12 246.23L309.74 247.46L306.46 248.66L303.3 249.82L300.27 250.92L297.38 251.98L294.64 252.98L292.07 253.92L289.67 254.79L287.45 255.6L285.43 256.34L283.62 257L282.02 257.57L280.65 258.07L279.52 258.47L278.41 258.86L277.12 259.31L275.66 259.82L274.03 260.39L272.24 261L270.31 261.67L268.23 262.38L266.04 263.14L263.72 263.94L261.3 264.77L258.78 265.64L256.17 266.54L253.49 267.46L250.73 268.41L247.92 269.39L245.06 270.38L242.16 271.39L239.23 272.41L236.28 273.43L233.32 274.47L230.36 275.51L227.4 276.55L224.47 277.59L221.57 278.62L218.71 279.64L215.89 280.65L213.13 281.64L210.44 282.62L207.83 283.58L205.31 284.51L202.88 285.41L200.56 286.28L198.36 287.13L196.28 287.93L194.34 288.69L192.54 289.42L190.9 290.09L189.43 290.72L188.13 291.29L187.02 291.82L185.02 292.95L183.17 294.1L181.47 295.29L179.91 296.49L178.51 297.72L177.24 298.97L176.12 300.24L175.14 301.53L174.29 302.83L173.58 304.14L173 305.47L172.55 306.81L172.23 308.15L172.04 309.5L171.96 310.86L172.01 312.22L172.18 313.58L172.47 314.94L172.86 316.3L173.38 317.65L174 319L174.73 320.34L175.56 321.67L176.5 322.99L177.54 324.3L178.68 325.59L179.92 326.86L181.25 328.12L182.67 329.36L184.18 330.58L185.78 331.77L187.47 332.94L189.24 334.08L191.09 335.19L193.02 336.27L195.03 337.33L197.11 338.34L199.26 339.32L201.48 340.27L203.78 341.17L210.5 344.38L216.8 347.36L222.69 350.11L228.19 352.67L233.31 355.03L238.07 357.23L242.49 359.27L246.58 361.17L250.37 362.95L253.87 364.62L257.1 366.21L260.08 367.71L262.82 369.16L265.34 370.57L267.66 371.95L269.8 373.32L271.77 374.7L273.59 376.1L275.28 377.54L276.86 379.04L278.34 380.6L279.74 382.25L281.08 384.01L282.38 385.88L283.65 387.89L284.91 390.05L286.18 392.38L287.48 394.9L288.82 397.61L290.23 400.54L291.71 403.7L293.29 407.11L294.98 410.78L296.8 414.74L298.77 418.99L300.91 423.55L303.23 428.45L305.76 433.69L308.5 439.29L311.48 445.26L312.13 446.87L312.84 448.52L313.58 450.21L314.36 451.94L315.18 453.69L316.04 455.46L316.94 457.24L317.87 459.03L318.83 460.81L319.83 462.59L320.86 464.34L321.92 466.08L323.01 467.78L324.13 469.44L325.27 471.05L326.44 472.61L327.64 474.11L328.86 475.55L330.1 476.9L331.36 478.18L332.64 479.36L333.95 480.44L335.26 481.42L336.6 482.29L337.95 483.04L339.32 483.67L340.7 484.16L342.09 484.5L343.49 484.7L344.9 484.75L346.32 484.63L347.74 484.34L349.18 483.87L350.61 483.22L352.06 482.38L353.5 481.33L354.95 480.08L356.39 478.62L357.84 476.94L359.28 475.02L360.04 473.81L360.82 472.5L361.61 471.08L362.41 469.56L363.21 467.95L364.03 466.26L364.85 464.48L365.68 462.62L366.52 460.7L367.36 458.7L368.2 456.65L369.05 454.54L369.9 452.38L370.76 450.17L371.61 447.92L372.46 445.63L373.32 443.31L374.17 440.97L375.01 438.6L375.86 436.22L376.7 433.83L377.53 431.44L378.36 429.04L379.18 426.65L380 424.26L380.8 421.89L381.6 419.54L382.38 417.22L383.15 414.92L383.92 412.66L384.66 410.44L385.4 408.27L386.12 406.14L386.82 404.07L387.51 402.06L388.18 400.12L388.83 398.25L389.46 396.45L390.07 394.73L390.66 393.1L391.45 390.94L392.33 388.52L393.3 385.84L394.35 382.92L395.47 379.77L396.67 376.41L397.94 372.85L399.26 369.11L400.65 365.2L402.08 361.14L403.56 356.93L405.08 352.6L406.63 348.15L408.21 343.6L409.82 338.97L411.44 334.27L413.08 329.51L414.73 324.71L416.38 319.88L418.03 315.04L419.67 310.2L421.29 305.37L422.9 300.57L424.49 295.81L426.05 291.11L427.57 286.48L429.05 281.94L430.49 277.49L431.88 273.16L433.21 268.95L434.49 264.89L435.69 260.98L436.83 257.25L437.89 253.69L438.87 250.34L439.76 247.2L440.56 244.28L441.26 241.6L441.86 239.18L442.35 237.03L442.8 234.81L443.18 232.68L443.48 230.66L443.7 228.73L443.86 226.91L443.93 225.18L443.94 223.54L443.87 222L443.72 220.55L443.5 219.18L443.21 217.91L442.84 216.73L442.41 215.63L441.9 214.62L441.31 213.69L440.66 212.85L439.93 212.09L439.14 211.4L438.27 210.8L437.33 210.27L436.32 209.82L435.24 209.44L434.08 209.14L432.86 208.91L431.57 208.75L430.21 208.66L428.78 208.63L427.29 208.67L425.72 208.78Z" id="fahud8WPo"></path></defs><g><g><g><use xlink:href="#fahud8WPo" opacity="1" fill="#ffffff" fill-opacity="1"></use><g><use xlink:href="#fahud8WPo" opacity="1" fill-opacity="0" stroke="#000000" stroke-width="1" stroke-opacity="0"></use></g></g></g></g></svg>