<?xml version="1.0" encoding="UTF-8" standalone="no"?>
<!DOCTYPE svg PUBLIC "-//W3C//DTD SVG 1.1//EN" "http://www.w3.org/Graphics/SVG/1.1/DTD/svg11.dtd">
<svg version="1.1" xmlns="http://www.w3.org/2000/svg" xmlns:xlink="http://www.w3.org/1999/xlink" preserveAspectRatio="xMidYMid meet" viewBox="0 0 640 640" width="640" height="640"><defs><path d="M200.86 581.48C442.6 581.48 574.81 381.21 574.81 207.53C574.81 201.85 574.81 196.18 574.43 190.55C600.15 171.94 622.35 148.9 640 122.52C616.01 133.14 590.57 140.11 564.51 143.19C591.95 126.77 612.48 100.93 622.29 70.5C596.5 85.81 568.27 96.6 538.84 102.4C489.06 49.48 405.81 46.92 352.88 96.69C318.75 128.79 304.27 176.63 314.86 222.27C209.19 216.97 110.73 167.06 44 84.95C9.11 145 26.93 221.83 84.69 260.4C63.77 259.78 43.31 254.13 25.04 243.95C25.04 244.48 25.04 245.05 25.04 245.61C25.05 308.17 69.15 362.06 130.48 374.45C111.13 379.72 90.83 380.49 71.13 376.7C88.35 430.24 137.69 466.92 193.92 467.97C147.38 504.55 89.89 524.4 30.7 524.34C20.24 524.32 9.79 523.69 -0.59 522.45C59.52 561.02 129.45 581.48 200.86 581.38" id="b5SFQnf4q"></path></defs><g><g><g><use xlink:href="#b5SFQnf4q" opacity="1" fill="#ffffff" fill-opacity="1"></use><g><use xlink:href="#b5SFQnf4q" opacity="1" fill-opacity="0" stroke="#000000" stroke-width="1" stroke-opacity="0"></use></g></g></g></g></svg>