<?xml version="1.0" encoding="UTF-8" standalone="no"?>
<!DOCTYPE svg PUBLIC "-//W3C//DTD SVG 1.1//EN" "http://www.w3.org/Graphics/SVG/1.1/DTD/svg11.dtd">
<svg version="1.1" xmlns="http://www.w3.org/2000/svg" xmlns:xlink="http://www.w3.org/1999/xlink" preserveAspectRatio="xMidYMid meet" viewBox="0 0 640 640" width="640" height="640"><defs><path d="M573.98 0.56L577 0.99L579.98 1.54L582.92 2.2L585.82 2.98L588.66 3.86L591.46 4.86L594.21 5.95L596.9 7.16L599.54 8.46L602.11 9.86L604.63 11.35L607.08 12.94L609.46 14.62L611.78 16.39L614.03 18.24L616.2 20.18L618.29 22.19L620.31 24.29L622.25 26.46L624.1 28.71L625.87 31.02L627.55 33.41L629.14 35.86L630.63 38.38L632.03 40.95L633.33 43.59L634.53 46.28L635.63 49.03L636.62 51.82L637.51 54.67L638.29 57.57L638.95 60.5L639.5 63.48L639.93 66.5L640.24 69.56L640.42 72.65L640.49 75.78L640.49 202.49L640.28 201.97L632.09 184.29L623.43 167.76L614.34 152.32L604.83 137.96L594.96 124.64L584.74 112.32L574.22 100.97L563.43 90.55L552.41 81.03L541.17 72.38L529.77 64.55L518.23 57.53L506.59 51.26L494.88 45.72L483.13 40.87L471.38 36.69L459.66 33.12L448 30.14L436.45 27.72L425.02 25.82L413.76 24.4L402.7 23.43L391.87 22.88L381.31 22.72L371.05 22.89L361.12 23.39L351.56 24.15L342.4 25.17L333.68 26.39L325.42 27.79L317.66 29.32L310.44 30.97L303.79 32.68L297.74 34.43L292.32 36.18L287.58 37.9L283.53 39.55L280.23 41.11L277.69 42.52L275.96 43.77L282.13 43.52L288.51 43.28L295.08 43.08L301.82 42.94L308.74 42.88L315.82 42.92L323.05 43.08L330.41 43.39L337.9 43.87L345.5 44.54L353.2 45.42L360.99 46.54L368.86 47.91L376.8 49.57L384.8 51.52L392.84 53.8L400.92 56.42L409.02 59.42L417.13 62.8L425.24 66.59L433.34 70.82L441.42 75.51L449.46 80.67L457.46 86.34L465.4 92.52L473.27 99.26L481.06 106.56L488.76 114.45L496.36 122.95L503.85 132.09L511.21 141.88L518.44 152.35L525.52 163.52L532.44 175.41L539.18 188.05L545.75 201.46L552.13 215.65L558.3 230.66L564.25 246.5L569.98 263.19L573.53 276.62L576.76 289.65L579.66 302.27L582.26 314.5L584.55 326.36L586.53 337.86L588.21 349.01L589.61 359.81L590.71 370.29L591.53 380.45L592.08 390.31L592.35 399.88L592.36 409.17L592.1 418.19L591.59 426.95L590.83 435.47L589.82 443.76L588.56 451.83L587.07 459.69L585.36 467.36L583.41 474.84L581.24 482.15L578.86 489.3L576.27 496.3L573.47 503.16L570.48 509.91L567.28 516.54L563.9 523.07L560.34 529.51L556.59 535.87L552.67 542.17L548.58 548.42L544.33 554.63L539.91 560.81L535.35 566.98L530.63 573.14L525.77 579.3L520.77 585.49L515.64 591.71L510.39 597.97L512.92 596.87L516.03 595.21L519.68 592.98L523.82 590.2L528.42 586.87L533.42 583.02L538.79 578.63L544.49 573.74L550.46 568.34L556.67 562.44L563.08 556.06L569.63 549.2L576.3 541.88L583.03 534.09L589.78 525.86L596.52 517.19L603.19 508.09L609.75 498.57L616.16 488.64L622.38 478.31L628.37 467.58L634.08 456.48L639.46 445L640.49 442.58L640.49 564.71L640.42 567.84L640.24 570.93L639.93 573.98L639.5 577L638.95 579.98L638.29 582.92L637.51 585.82L636.62 588.66L635.63 591.46L634.53 594.21L633.33 596.9L632.03 599.54L630.63 602.11L629.14 604.63L627.55 607.08L625.87 609.46L624.1 611.78L622.25 614.03L620.31 616.2L618.29 618.29L616.2 620.31L614.03 622.25L611.78 624.1L609.46 625.87L607.08 627.55L604.63 629.14L602.11 630.63L599.54 632.03L596.9 633.33L594.21 634.53L591.46 635.63L588.66 636.62L585.82 637.51L582.92 638.29L579.98 638.95L577 639.5L573.98 639.93L570.93 640.24L567.84 640.42L564.71 640.49L406.14 640.49L417.26 635.91L429.74 629.94L441.59 623.46L452.84 616.51L463.5 609.14L473.57 601.39L483.07 593.31L492.02 584.94L500.42 576.33L508.3 567.54L515.66 558.59L522.52 549.55L528.88 540.46L534.77 531.35L540.2 522.29L545.18 513.32L549.72 504.47L553.83 495.81L557.53 487.37L560.84 479.2L563.76 471.35L566.3 463.86L568.49 456.79L570.33 450.17L571.84 444.06L573.03 438.49L573.92 433.52L574.51 429.19L574.82 425.56L574.86 422.65L574.65 420.53L571.78 426L568.79 431.64L565.68 437.43L562.43 443.34L559.02 449.36L555.45 455.47L551.69 461.65L547.74 467.87L543.59 474.11L539.21 480.36L534.59 486.59L529.73 492.78L524.6 498.91L519.2 504.96L513.51 510.91L507.51 516.74L501.2 522.42L494.56 527.94L487.58 533.27L480.24 538.4L472.53 543.3L464.43 547.95L455.94 552.33L447.03 556.43L437.7 560.21L427.93 563.66L417.72 566.76L407.03 569.48L395.87 571.81L384.21 573.73L372.05 575.21L359.37 576.23L346.16 576.77L332.4 576.82L318.08 576.35L303.19 575.33L287.71 573.75L271.63 571.59L254.93 568.83L237.61 565.45L224.2 561.8L211.31 558.09L198.92 554.29L187.03 550.42L175.62 546.47L164.67 542.44L154.17 538.33L144.12 534.13L134.49 529.85L125.28 525.48L116.47 521.03L108.05 516.48L100 511.84L92.32 507.11L84.98 502.28L77.99 497.36L71.31 492.34L64.95 487.22L58.89 482L53.11 476.68L47.6 471.25L42.36 465.72L37.35 460.09L32.59 454.34L28.04 448.49L23.7 442.52L19.55 436.44L15.59 430.25L11.79 423.94L8.16 417.51L4.66 410.96L1.29 404.3L0 401.6L0 359.01L1.88 364.75L5.95 375.59L10.35 386.05L15.04 396.11L19.98 405.76L25.11 415L30.4 423.79L35.79 432.15L41.24 440.04L46.69 447.47L52.11 454.41L57.45 460.87L62.66 466.81L67.7 472.25L72.51 477.15L77.05 481.52L81.27 485.33L85.13 488.58L88.59 491.25L91.58 493.34L94.07 494.83L96.02 495.71L92.72 490.49L89.33 485.08L85.87 479.49L82.37 473.72L78.86 467.76L75.36 461.61L71.89 455.27L68.47 448.74L65.14 442.02L61.92 435.1L58.84 427.99L55.91 420.68L53.16 413.18L50.62 405.47L48.32 397.57L46.27 389.47L44.5 381.16L43.04 372.65L41.92 363.93L41.15 355.01L40.76 345.88L40.78 336.55L41.23 327L42.14 317.24L43.53 307.27L45.42 297.09L47.85 286.69L50.83 276.07L54.39 265.24L58.56 254.19L63.36 242.92L68.82 231.42L74.95 219.71L81.79 207.77L89.36 195.61L97.69 183.22L106.79 170.6L116.7 157.75L127.44 144.67L139.04 131.37L148.9 121.58L158.56 112.27L168.04 103.44L177.34 95.08L186.46 87.17L195.43 79.7L204.24 72.67L212.9 66.06L221.42 59.86L229.81 54.07L238.08 48.67L246.23 43.65L254.27 39L262.21 34.71L270.05 30.77L277.81 27.17L285.5 23.9L293.11 20.95L300.66 18.31L308.16 15.97L315.61 13.91L323.03 12.13L330.41 10.62L337.77 9.36L345.11 8.35L352.45 7.58L359.79 7.03L367.13 6.69L374.5 6.56L381.88 6.62L389.3 6.87L396.76 7.28L404.26 7.86L411.82 8.6L419.44 9.47L427.13 10.47L434.9 11.6L442.76 12.83L450.71 14.16L458.76 15.59L456.55 13.94L453.55 12.08L449.79 10.04L445.31 7.84L440.14 5.52L434.29 3.11L427.81 0.65L425.95 0L564.71 0L567.84 0.06L570.93 0.25L570.93 0.25L573.98 0.56ZM8.92 471.75L13.88 482.2L19.27 492.72L25.11 503.27L31.41 513.82L38.17 524.31L45.42 534.72L53.16 544.99L61.41 555.08L70.19 564.96L79.51 574.58L89.37 583.89L99.8 592.87L110.8 601.45L122.4 609.62L134.59 617.31L147.41 624.49L160.85 631.12L174.93 637.15L184.05 640.49L75.78 640.49L72.65 640.42L69.56 640.24L66.5 639.93L63.48 639.5L60.5 638.95L57.57 638.29L54.67 637.51L51.82 636.62L49.03 635.63L46.28 634.53L43.59 633.33L40.95 632.03L38.38 630.63L35.86 629.14L33.41 627.55L31.02 625.87L28.71 624.1L26.46 622.25L24.29 620.31L22.19 618.29L20.18 616.2L18.24 614.03L16.39 611.78L14.62 609.46L12.94 607.08L11.35 604.63L9.86 602.11L8.46 599.54L7.16 596.9L5.95 594.21L4.86 591.46L3.86 588.66L2.98 585.82L2.2 582.92L1.54 579.98L0.99 577L0.56 573.98L0.25 570.93L0.06 567.84L0 564.71L0 450.66L0.23 451.26L4.37 461.43L4.37 461.43L8.92 471.75ZM286.78 317.39L283.07 317.93L279.35 318.63L275.62 319.49L271.88 320.51L268.14 321.69L264.39 323.04L260.63 324.54L256.87 326.21L253.11 328.05L249.34 330.06L245.58 332.23L241.81 334.58L238.05 337.1L234.29 339.79L230.53 342.66L226.78 345.7L223.03 348.92L219.29 352.32L215.55 355.91L211.83 359.67L208.12 363.62L204.42 367.75L200.73 372.07L197.05 376.58L193.39 381.27L189.75 386.16L186.12 391.24L182.51 396.51L178.92 401.98L175.36 407.64L173.77 410.31L172.33 412.95L171.02 415.56L169.85 418.14L168.8 420.68L167.89 423.2L167.1 425.68L166.44 428.12L165.89 430.53L165.46 432.9L165.15 435.23L164.95 437.52L164.86 439.77L164.87 441.97L164.99 444.13L165.21 446.24L165.52 448.31L165.93 450.33L166.43 452.3L167.03 454.22L167.7 456.08L168.47 457.9L169.31 459.66L170.23 461.36L171.23 463L172.3 464.59L173.44 466.12L174.64 467.58L175.91 468.99L177.25 470.33L178.64 471.6L180.08 472.81L181.58 473.95L183.13 475.02L184.73 476.02L186.37 476.96L188.06 477.81L189.78 478.6L191.54 479.31L193.33 479.94L195.44 480.58L197.59 481.14L199.78 481.62L202.01 482.02L204.28 482.35L206.58 482.62L208.92 482.82L211.29 482.96L213.69 483.05L216.12 483.09L218.57 483.08L221.05 483.03L223.54 482.94L226.06 482.82L228.6 482.66L231.14 482.48L233.71 482.28L236.28 482.06L238.86 481.83L241.45 481.58L244.05 481.34L246.64 481.08L249.24 480.84L251.84 480.59L254.43 480.36L257.02 480.14L259.6 479.95L262.17 479.77L264.73 479.62L267.27 479.51L269.8 479.42L272.31 479.38L274.8 479.38L277.27 479.43L279.71 479.53L282.13 479.68L284.52 479.9L286.87 480.17L289.2 480.52L291.49 480.94L293.98 481.49L296.44 482.16L298.86 482.93L301.25 483.79L303.61 484.74L305.95 485.78L308.25 486.89L310.53 488.08L312.79 489.33L315.02 490.65L317.23 492.01L319.42 493.42L321.58 494.88L323.73 496.37L325.86 497.89L327.98 499.43L330.08 500.99L332.16 502.57L334.24 504.14L336.3 505.72L338.35 507.29L340.39 508.85L342.43 510.39L344.46 511.9L346.48 513.39L348.5 514.83L350.52 516.24L352.53 517.59L354.55 518.89L356.56 520.13L358.58 521.3L360.6 522.4L362.63 523.42L364.66 524.36L366.7 525.2L368.75 525.94L370.81 526.59L372.88 527.12L374.96 527.54L377.05 527.84L378.53 527.98L380.04 528.07L381.58 528.12L383.15 528.11L384.74 528.05L386.34 527.93L387.96 527.76L389.58 527.52L391.21 527.22L392.84 526.84L394.46 526.4L396.06 525.89L397.66 525.29L399.23 524.62L400.79 523.87L402.31 523.04L403.8 522.11L405.25 521.1L406.67 520L408.04 518.8L409.35 517.5L410.61 516.1L411.82 514.6L412.96 513L414.03 511.28L415.03 509.45L415.95 507.51L416.8 505.46L417.55 503.28L418.22 500.98L418.79 498.56L419.26 496L419.63 493.32L419.89 490.51L420.04 487.56L420.08 484.47L419.99 481.23L419.78 477.86L419.43 474.34L418.96 470.67L417.84 464.48L416.64 458.38L415.36 452.39L414 446.51L412.56 440.73L411.05 435.06L409.46 429.5L407.8 424.05L406.07 418.72L404.26 413.5L402.39 408.4L400.44 403.42L398.43 398.57L396.35 393.83L394.21 389.22L392 384.74L389.73 380.39L387.4 376.16L385.01 372.08L382.55 368.12L380.05 364.3L377.48 360.62L374.86 357.09L372.18 353.69L369.45 350.44L366.67 347.33L363.84 344.37L360.96 341.57L358.03 338.91L355.06 336.41L352.04 334.06L348.97 331.87L345.86 329.84L342.71 327.97L339.52 326.26L336.29 324.72L333.02 323.35L329.72 322.14L326.38 321.11L323 320.24L319.47 319.3L315.91 318.5L312.33 317.84L308.73 317.33L305.11 316.96L301.47 316.75L297.82 316.68L294.15 316.76L290.47 317L290.47 317L286.78 317.39ZM477.12 273.3L474.98 273.66L472.83 274.11L470.67 274.65L468.5 275.29L466.32 276.02L464.15 276.84L461.97 277.74L459.8 278.74L457.63 279.82L455.47 280.99L453.32 282.25L451.18 283.59L449.06 285.01L446.96 286.51L444.88 288.1L442.82 289.76L440.78 291.5L438.78 293.33L436.81 295.22L434.87 297.2L432.96 299.25L431.1 301.37L429.28 303.57L427.5 305.84L425.76 308.17L424.08 310.58L422.47 313.04L420.93 315.51L419.48 318L418.12 320.51L416.83 323.02L415.63 325.55L414.51 328.08L413.48 330.62L412.53 333.15L411.66 335.69L410.87 338.22L410.17 340.74L409.55 343.25L409.01 345.74L408.56 348.22L408.19 350.68L407.9 353.12L407.7 355.54L407.57 357.93L407.53 360.28L407.58 362.61L407.71 364.9L407.92 367.15L408.21 369.36L408.58 371.52L409.04 373.64L409.58 375.71L410.21 377.73L410.92 379.69L411.71 381.59L412.58 383.43L413.54 385.21L414.58 386.93L415.7 388.57L416.9 390.14L418.19 391.64L419.56 393.06L421.02 394.4L422.55 395.66L424.17 396.83L425.86 397.9L427.6 398.86L429.38 399.72L431.2 400.47L433.07 401.11L434.98 401.65L436.92 402.08L438.89 402.42L440.9 402.65L442.94 402.78L445 402.81L447.08 402.74L449.19 402.58L451.31 402.32L453.45 401.96L455.6 401.51L457.76 400.96L459.93 400.33L462.1 399.6L464.28 398.78L466.45 397.87L468.63 396.88L470.79 395.79L472.96 394.62L475.11 393.37L477.24 392.03L479.36 390.61L481.47 389.11L483.55 387.52L485.61 385.86L487.64 384.11L489.65 382.29L491.62 380.39L493.56 378.42L495.46 376.37L497.33 374.24L499.15 372.05L500.93 369.78L502.66 367.44L504.34 365.03L505.96 362.58L507.49 360.11L508.94 357.61L510.31 355.11L511.59 352.59L512.79 350.07L513.91 347.53L514.95 345L515.9 342.46L516.77 339.93L517.55 337.4L518.25 334.88L518.87 332.37L519.41 329.87L519.87 327.39L520.24 324.93L520.52 322.49L520.73 320.08L520.85 317.69L520.89 315.33L520.85 313.01L520.72 310.72L520.51 308.47L520.22 306.26L519.84 304.09L519.38 301.97L518.84 299.9L518.22 297.89L517.51 295.93L516.72 294.02L515.84 292.18L514.89 290.4L513.85 288.69L512.73 287.05L511.52 285.47L510.23 283.98L508.86 282.56L507.41 281.22L505.87 279.96L504.25 278.79L502.56 277.72L500.83 276.75L499.05 275.9L497.22 275.15L495.35 274.51L493.45 273.97L491.51 273.53L489.53 273.2L487.52 272.97L485.49 272.84L483.43 272.81L481.34 272.87L479.24 273.04L479.24 273.04L477.12 273.3ZM168.48 202.64L166.52 203.06L164.61 203.59L162.74 204.23L160.91 204.98L159.13 205.83L157.39 206.78L155.7 207.83L154.06 208.98L152.47 210.23L150.93 211.56L149.44 212.98L148 214.49L146.61 216.09L145.28 217.76L144.01 219.52L142.79 221.35L141.63 223.25L140.54 225.23L139.5 227.27L138.52 229.38L137.6 231.55L136.75 233.79L135.97 236.08L135.25 238.43L134.6 240.83L134.01 243.28L133.5 245.78L133.05 248.33L132.68 250.92L132.38 253.55L132.15 256.22L132 258.93L131.93 261.66L131.93 264.43L132.01 267.23L132.17 270.05L132.41 272.89L132.73 275.76L133.14 278.64L133.63 281.53L134.2 284.42L134.84 287.25L135.56 290.05L136.34 292.79L137.19 295.49L138.1 298.13L139.08 300.72L140.12 303.25L141.22 305.73L142.38 308.14L143.6 310.49L144.86 312.78L146.18 315.01L147.55 317.16L148.97 319.25L150.43 321.27L151.93 323.21L153.48 325.07L155.07 326.86L156.69 328.57L158.36 330.19L160.05 331.74L161.78 333.19L163.54 334.56L165.33 335.84L167.14 337.03L168.98 338.13L170.83 339.12L172.71 340.03L174.61 340.83L176.53 341.53L178.46 342.13L180.4 342.62L182.35 343L184.31 343.28L186.28 343.44L188.26 343.49L190.23 343.43L192.21 343.25L194.18 342.94L196.14 342.53L198.05 341.99L199.92 341.35L201.75 340.61L203.53 339.76L205.27 338.8L206.96 337.75L208.6 336.6L210.19 335.36L211.73 334.03L213.22 332.6L214.66 331.09L216.05 329.5L217.38 327.82L218.65 326.07L219.87 324.24L221.02 322.34L222.12 320.36L223.16 318.32L224.14 316.21L225.05 314.04L225.9 311.8L226.69 309.51L227.41 307.16L228.06 304.76L228.65 302.3L229.16 299.8L229.61 297.26L229.98 294.67L230.28 292.04L230.51 289.37L230.66 286.66L230.73 283.92L230.73 281.16L230.65 278.36L230.49 275.54L230.25 272.7L229.92 269.83L229.52 266.95L229.03 264.05L228.46 261.17L227.82 258.33L227.1 255.54L226.32 252.8L225.47 250.1L224.55 247.46L223.58 244.87L222.53 242.34L221.43 239.86L220.28 237.45L219.06 235.09L217.8 232.8L216.48 230.58L215.11 228.42L213.69 226.34L212.23 224.32L210.73 222.38L209.18 220.52L207.59 218.73L205.96 217.02L204.3 215.39L202.61 213.85L200.88 212.39L199.12 211.02L197.33 209.75L195.52 208.56L193.68 207.46L191.82 206.46L189.94 205.56L188.05 204.76L186.13 204.06L184.2 203.46L182.26 202.97L180.31 202.58L178.34 202.31L176.38 202.15L174.4 202.09L172.43 202.16L170.45 202.34L170.45 202.34L168.48 202.64ZM418.86 136.32L416.7 136.67L414.54 137.12L412.37 137.68L410.21 138.36L408.05 139.13L405.9 140.01L403.76 140.99L401.62 142.08L399.5 143.26L397.4 144.53L395.31 145.91L393.24 147.38L391.2 148.93L389.18 150.58L387.19 152.32L385.23 154.15L383.31 156.06L381.42 158.05L379.56 160.13L377.75 162.28L375.98 164.52L374.26 166.83L372.58 169.21L370.95 171.67L369.38 174.2L367.86 176.81L366.4 179.47L365 182.21L363.66 185.01L362.39 187.88L361.18 190.8L360.06 193.76L359.02 196.72L358.08 199.68L357.22 202.63L356.46 205.58L355.79 208.51L355.2 211.43L354.7 214.34L354.29 217.23L353.96 220.09L353.72 222.93L353.56 225.75L353.49 228.53L353.51 231.27L353.6 233.99L353.78 236.66L354.04 239.29L354.38 241.87L354.8 244.41L355.3 246.89L355.88 249.32L356.54 251.69L357.27 254.01L358.09 256.26L358.98 258.44L359.94 260.56L360.99 262.6L362.1 264.57L363.29 266.46L364.56 268.27L365.89 270L367.3 271.64L368.78 273.19L370.33 274.66L371.95 276.02L373.64 277.29L375.4 278.45L377.23 279.52L379.12 280.47L381.08 281.32L383.09 282.05L385.13 282.65L387.19 283.13L389.27 283.48L391.37 283.71L393.48 283.83L395.61 283.83L397.76 283.71L399.91 283.48L402.06 283.13L404.22 282.68L406.39 282.12L408.55 281.45L410.71 280.67L412.86 279.79L415.01 278.81L417.14 277.73L419.26 276.54L421.37 275.27L423.45 273.89L425.52 272.43L427.56 270.87L429.58 269.22L431.57 267.48L433.53 265.65L435.45 263.74L437.35 261.75L439.2 259.67L441.01 257.52L442.78 255.28L444.51 252.97L446.18 250.59L447.81 248.13L449.38 245.6L450.9 243L452.36 240.33L453.76 237.59L455.1 234.79L456.38 231.92L457.58 229L458.71 226.04L459.74 223.08L460.68 220.12L461.54 217.17L462.3 214.22L462.98 211.29L463.56 208.37L464.06 205.46L464.48 202.57L464.8 199.71L465.04 196.87L465.2 194.06L465.27 191.27L465.26 188.53L465.16 185.82L464.98 183.14L464.72 180.51L464.38 177.93L463.96 175.4L463.46 172.91L462.88 170.48L462.22 168.11L461.49 165.79L460.67 163.54L459.78 161.36L458.82 159.24L457.78 157.2L456.66 155.23L455.47 153.34L454.21 151.53L452.87 149.8L451.46 148.16L449.98 146.61L448.43 145.15L446.81 143.78L445.12 142.51L443.36 141.35L441.54 140.28L439.64 139.33L437.68 138.48L435.67 137.75L433.63 137.15L431.57 136.68L429.49 136.32L427.39 136.09L425.28 135.97L423.15 135.97L421.01 136.09L421.01 136.09L418.86 136.32ZM280.71 105.53L278.64 105.96L276.61 106.52L274.6 107.19L272.62 107.98L270.67 108.88L268.76 109.88L266.88 111L265.04 112.22L263.23 113.54L261.47 114.96L259.75 116.47L258.07 118.08L256.44 119.79L254.85 121.58L253.32 123.46L251.83 125.42L250.4 127.47L249.02 129.59L247.69 131.79L246.42 134.07L245.21 136.42L244.06 138.84L242.98 141.32L241.95 143.87L240.99 146.49L240.1 149.16L239.28 151.89L238.53 154.67L237.85 157.51L237.24 160.39L236.71 163.33L236.26 166.3L235.88 169.32L235.59 172.38L235.38 175.48L235.25 178.61L235.2 181.78L235.25 184.94L235.38 188.07L235.59 191.17L235.88 194.23L236.26 197.25L236.71 200.23L237.24 203.16L237.85 206.05L238.53 208.88L239.28 211.67L240.1 214.4L240.99 217.07L241.95 219.68L242.98 222.23L244.06 224.72L245.21 227.13L246.42 229.48L247.69 231.76L249.02 233.96L250.4 236.09L251.83 238.13L253.32 240.1L254.85 241.98L256.44 243.77L258.07 245.47L259.75 247.08L261.47 248.6L263.23 250.02L265.04 251.34L266.88 252.56L268.76 253.67L270.67 254.68L272.62 255.58L274.6 256.36L276.61 257.04L278.64 257.59L280.71 258.03L282.8 258.34L284.91 258.53L287.05 258.6L289.19 258.53L291.3 258.34L293.39 258.03L295.45 257.59L297.49 257.04L299.5 256.36L301.48 255.58L303.43 254.68L305.34 253.67L307.22 252.56L309.06 251.34L310.87 250.02L312.63 248.6L314.35 247.08L316.03 245.47L317.66 243.77L319.25 241.98L320.78 240.1L322.27 238.13L323.7 236.09L325.08 233.96L326.41 231.76L327.68 229.48L328.89 227.13L330.04 224.72L331.12 222.23L332.15 219.68L333.11 217.07L334 214.4L334.82 211.67L335.57 208.88L336.25 206.05L336.86 203.16L337.39 200.23L337.84 197.25L338.22 194.23L338.51 191.17L338.72 188.07L338.85 184.94L338.9 181.78L338.85 178.61L338.72 175.48L338.51 172.38L338.22 169.32L337.84 166.3L337.39 163.33L336.86 160.39L336.25 157.51L335.57 154.67L334.82 151.89L334 149.16L333.11 146.49L332.15 143.87L331.12 141.32L330.04 138.84L328.89 136.42L327.68 134.07L326.41 131.79L325.08 129.59L323.7 127.47L322.27 125.42L320.78 123.46L319.25 121.58L317.66 119.79L316.03 118.08L314.35 116.47L312.63 114.96L310.87 113.54L309.06 112.22L307.22 111L305.34 109.88L303.43 108.88L301.48 107.98L299.5 107.19L297.49 106.52L295.45 105.96L293.39 105.53L291.3 105.21L289.19 105.02L287.05 104.96L284.91 105.02L282.8 105.21L282.8 105.21L280.71 105.53ZM145.63 16.22L133.01 23.73L120.54 32.05L108.28 41.23L96.23 51.3L84.44 62.29L72.93 74.23L61.73 87.15L50.87 101.09L39.66 117.02L29.66 132.79L20.84 148.39L13.16 163.8L6.56 179.01L1 194.02L0 197.24L0 75.78L0.06 72.65L0.25 69.56L0.56 66.5L0.99 63.48L1.54 60.5L2.2 57.57L2.98 54.67L3.86 51.82L4.86 49.03L5.95 46.28L7.16 43.59L8.46 40.95L9.86 38.38L11.35 35.86L12.94 33.41L14.62 31.02L16.39 28.71L18.24 26.46L20.18 24.29L22.19 22.19L24.29 20.18L26.46 18.24L28.71 16.39L31.02 14.62L33.41 12.94L35.86 11.35L38.38 9.86L40.95 8.46L43.59 7.16L46.28 5.95L49.03 4.86L51.82 3.86L54.67 2.98L57.57 2.2L60.5 1.54L63.48 0.99L66.5 0.56L69.56 0.25L72.65 0.06L75.78 0L180.01 0L171.26 3.54L158.39 9.5L158.39 9.5L145.63 16.22Z" id="c2LwlQS3mE"></path></defs><g><g><g><use xlink:href="#c2LwlQS3mE" opacity="1" fill="#ffffff" fill-opacity="1"></use></g></g></g></svg>