<?xml version="1.0" encoding="UTF-8" standalone="no"?>
<!DOCTYPE svg PUBLIC "-//W3C//DTD SVG 1.1//EN" "http://www.w3.org/Graphics/SVG/1.1/DTD/svg11.dtd">
<svg width="100%" height="100%" viewBox="0 0 640 640" version="1.1" xmlns="http://www.w3.org/2000/svg" xmlns:xlink="http://www.w3.org/1999/xlink" xml:space="preserve" xmlns:serif="http://www.serif.com/" style="fill-rule:evenodd;clip-rule:evenodd;stroke-linejoin:round;stroke-miterlimit:2;">
    <g id="Layer1">
        <path d="M332.48,0C352.804,0.043 373.131,-0.466 393.451,-0.097C462.429,1.156 543.329,4.909 592.564,60.942C605.711,75.904 612.679,89.403 620.514,107.551C631.496,132.991 635.626,160.997 637.775,188.386C641.357,234.031 640.301,261.802 640,307.52C639.743,346.617 639.995,385.721 639.18,424.81C638.022,480.363 630.351,542.36 588.91,583.62C582.583,589.919 575.925,595.941 568.752,601.257C510.524,644.415 436.893,639.967 368.25,639.93C322.76,639.905 277.267,640.501 231.779,640.066C197.365,639.737 162.24,638.804 128.857,629.346C107.067,623.173 98.915,619.327 79.605,607.551C20.543,571.533 4.272,497.719 1.463,433.433C0.514,411.721 0.273,389.982 0.07,368.25C-0.202,339.111 0.043,309.97 0.04,280.83C0.032,206.289 -4.821,121.47 46.768,60.569C92.821,6.204 171.203,1.519 236.97,0.34C268.802,-0.231 300.643,0 332.48,0ZM320,178C256.925,178 195.482,218.166 171.536,276.767C158.796,307.942 155.757,342.911 163.047,375.801C166.696,392.266 172.922,408.552 181.575,423.056C190.916,438.711 202.493,452.618 216.504,464.319C230.97,476.4 246.996,485.674 264.717,492.107C282.594,498.597 301.49,502.029 320.524,501.999C348.216,501.909 375.582,494.232 399.566,480.48C414.798,471.747 431.544,458.348 442.988,445.067C505.501,372.519 484.466,253.321 405.059,202.17C379.865,185.94 350.392,178.098 320.524,178.001L320,178ZM529.22,149.18C529.22,170.39 512.03,187.58 490.82,187.58C469.61,187.58 452.42,170.39 452.42,149.18C452.42,127.97 469.61,110.78 490.82,110.78C512.03,110.78 529.22,127.97 529.22,149.18Z" style="fill:white;"/>
    </g>
    <g>
        <path d="M412,340C412,390.776 370.776,432 320,432C269.224,432 228,390.776 228,340C228,289.224 269.224,248 320,248C370.776,248 412,289.224 412,340Z" style="fill:white;"/>
    </g>
</svg>
