<?xml version="1.0" encoding="UTF-8" standalone="no"?>
<!DOCTYPE svg PUBLIC "-//W3C//DTD SVG 1.1//EN" "http://www.w3.org/Graphics/SVG/1.1/DTD/svg11.dtd">
<svg version="1.1" xmlns="http://www.w3.org/2000/svg" xmlns:xlink="http://www.w3.org/1999/xlink" preserveAspectRatio="xMidYMid meet" viewBox="0 0 640 640" width="640" height="640"><defs><path d="M511.55 119.56L514 121.11L516.62 122.57L519.42 123.96L522.37 125.29L525.47 126.57L528.7 127.82L532.06 129.05L535.53 130.29L539.11 131.53L542.77 132.8L546.52 134.12L550.33 135.49L554.2 136.93L558.12 138.46L562.07 140.08L566.05 141.82L570.04 143.69L574.03 145.71L578.01 147.88L581.97 150.23L585.89 152.76L589.78 155.5L593.6 158.45L597.37 161.63L601.05 165.06L604.65 168.75L608.14 172.71L611.53 176.96L614.79 181.52L617.92 186.4L620.91 191.61L623.74 197.16L626.4 203.08L628.89 209.37L631.19 216.06L633.28 223.15L635.17 230.67L636.83 238.61L638.18 246.73L639.16 254.74L639.76 262.64L640 270.42L639.89 278.08L639.42 285.6L638.6 292.99L637.44 300.24L635.95 307.34L634.14 314.29L632 321.07L629.55 327.7L626.8 334.15L623.74 340.43L620.38 346.53L616.74 352.43L612.82 358.15L608.62 363.66L604.15 368.98L599.42 374.08L594.44 378.96L589.2 383.62L583.72 388.06L578 392.26L572.06 396.22L565.88 399.94L559.49 403.4L552.89 406.61L546.09 409.56L539.08 412.24L531.89 414.65L524.5 416.77L516.94 418.62L509.21 420.17L501.3 421.42L493.24 422.37L485.03 423.02L476.66 423.35L468.16 423.36L459.52 423.04L459.56 425.42L459.56 427.9L459.53 430.46L459.45 433.09L459.33 435.8L459.16 438.56L458.93 441.39L458.65 444.27L458.29 447.18L457.87 450.14L457.37 453.13L456.79 456.14L456.13 459.16L455.38 462.2L454.53 465.24L453.58 468.27L452.53 471.3L451.37 474.31L450.1 477.29L448.71 480.25L447.2 483.16L445.55 486.04L443.78 488.86L441.87 491.63L439.81 494.33L437.61 496.96L435.26 499.51L432.75 501.98L430.07 504.36L427.24 506.64L424.23 508.82L421.04 510.89L417.67 512.83L414.12 514.66L410.38 516.35L406.44 517.91L402.3 519.32L397.96 520.58L393.41 521.68L388.64 522.61L381.02 522.67L372.97 522.72L364.53 522.77L355.74 522.82L346.61 522.87L337.18 522.92L327.5 522.97L317.58 523.02L307.46 523.06L297.17 523.11L286.74 523.16L276.22 523.2L265.62 523.25L254.98 523.29L244.33 523.33L233.71 523.37L223.14 523.41L212.66 523.45L202.31 523.49L192.1 523.53L182.08 523.56L172.28 523.6L162.73 523.63L153.46 523.66L144.5 523.69L135.89 523.72L127.65 523.74L119.83 523.77L112.44 523.79L105.53 523.81L99.13 523.83L93.26 523.85L87.97 523.87L83.27 523.88L79.21 523.89L75.82 523.9L73.12 523.91L71.16 523.92L69.95 523.92L69.55 523.92L69.43 523.91L69.08 523.86L68.51 523.79L67.73 523.67L66.76 523.51L65.61 523.3L64.28 523.04L62.79 522.72L61.16 522.33L59.39 521.88L57.49 521.35L55.48 520.75L53.36 520.06L51.16 519.29L48.88 518.42L46.53 517.46L44.13 516.39L41.68 515.22L39.2 513.93L36.71 512.53L34.2 511.01L31.7 509.36L29.21 507.59L26.75 505.67L24.33 503.62L21.96 501.42L19.65 499.07L17.41 496.56L15.26 493.9L13.21 491.07L11.26 488.07L9.44 484.9L7.75 481.55L6.2 478.01L4.81 474.29L3.58 470.37L2.53 466.25L1.68 461.93L1.03 457.41L0.59 452.67L0.47 443.53L0.37 434.14L0.29 424.52L0.21 414.69L0.15 404.68L0.1 394.52L0.06 384.22L0.03 373.82L0.01 363.34L0 352.81L0 342.24L0.01 331.68L0.02 321.13L0.04 310.63L0.07 300.21L0.1 289.88L0.14 279.68L0.18 269.62L0.23 259.74L0.28 250.06L0.33 240.6L0.39 231.4L0.45 222.47L0.51 213.84L0.57 205.53L0.63 197.58L0.69 190.01L0.74 182.84L0.8 176.09L0.86 169.8L0.91 163.99L0.96 158.68L1 153.91L1.05 149.68L1.08 146.04L1.11 143L1.14 140.59L1.16 138.84L1.17 137.78L1.17 137.41L1.18 137.37L1.19 137.26L1.21 137.07L1.25 136.82L1.29 136.5L1.35 136.12L1.42 135.69L1.51 135.2L1.61 134.67L1.74 134.09L1.88 133.47L2.04 132.82L2.22 132.13L2.43 131.42L2.66 130.68L2.91 129.92L3.19 129.15L3.49 128.36L3.82 127.57L4.19 126.77L4.58 125.98L5 125.18L5.46 124.4L5.95 123.62L6.47 122.87L7.03 122.13L7.63 121.42L8.27 120.73L8.94 120.08L9.66 119.46L10.41 118.88L11.21 118.35L12.06 117.86L12.94 117.43L13.88 117.05L14.86 116.73L15.89 116.47L16.97 116.29L18.1 116.17L19.28 116.13L507.25 116.13L509.3 117.91L511.55 119.56ZM290.05 211.74L286.7 212.08L283.42 212.57L280.21 213.2L277.06 213.95L273.99 214.83L271 215.81L268.08 216.88L265.25 218.05L262.51 219.28L259.85 220.58L257.29 221.93L254.82 223.32L252.45 224.74L250.18 226.18L248.02 227.63L245.96 229.08L244.01 230.51L242.18 231.91L240.46 233.29L238.87 234.61L237.39 235.88L236.05 237.07L234.83 238.19L233.74 239.22L232.79 240.15L231.97 240.96L231.3 241.65L230.77 242.21L230.39 242.62L230.16 242.87L230.08 242.96L227.33 240.05L224.51 237.3L221.64 234.7L218.71 232.25L215.72 229.96L212.69 227.81L209.62 225.81L206.51 223.96L203.36 222.25L200.19 220.68L196.99 219.25L193.77 217.97L190.54 216.82L187.29 215.81L184.04 214.93L180.79 214.18L177.53 213.57L174.29 213.09L171.05 212.73L167.84 212.5L164.64 212.4L161.47 212.42L158.32 212.56L155.21 212.83L152.14 213.21L149.11 213.71L146.13 214.32L143.2 215.05L140.33 215.89L137.52 216.84L134.77 217.9L132.1 219.07L129.49 220.35L126.97 221.73L124.53 223.21L122.18 224.79L119.92 226.47L117.75 228.26L115.69 230.13L113.73 232.11L111.9 234.16L110.19 236.29L108.6 238.48L107.13 240.73L105.79 243.04L104.56 245.4L103.44 247.81L102.44 250.27L101.55 252.77L100.77 255.31L100.09 257.88L99.51 260.49L99.04 263.12L98.66 265.78L98.38 268.46L98.2 271.16L98.11 273.86L98.1 276.58L98.19 279.3L98.36 282.02L98.61 284.74L98.94 287.46L99.35 290.16L99.84 292.86L100.4 295.53L101.04 298.18L101.74 300.81L102.51 303.41L103.34 305.98L104.24 308.51L105.2 311.01L106.22 313.45L107.29 315.86L108.41 318.21L109.59 320.51L110.81 322.74L112.09 324.92L113.4 327.03L114.76 329.07L116.16 331.04L117.6 332.93L119.26 334.99L121.12 337.19L123.17 339.54L125.4 342.02L127.79 344.62L130.34 347.33L133.03 350.14L135.86 353.05L138.8 356.04L141.85 359.11L145 362.24L148.22 365.42L151.53 368.64L154.89 371.91L158.3 375.19L161.74 378.5L165.21 381.8L168.69 385.11L172.18 388.4L175.65 391.67L179.1 394.9L182.51 398.1L185.88 401.24L189.19 404.31L192.43 407.32L195.58 410.25L198.64 413.08L201.6 415.81L204.44 418.44L207.15 420.94L209.71 423.32L212.13 425.55L214.38 427.64L216.45 429.56L218.33 431.32L220.01 432.9L221.48 434.3L222.73 435.49L223.73 436.48L223.75 436.49L223.76 436.51L223.77 436.52L223.79 436.54L223.81 436.56L223.84 436.58L223.87 436.61L223.9 436.64L223.93 436.67L223.97 436.71L224.01 436.75L224.06 436.79L224.11 436.84L224.16 436.89L224.22 436.94L224.28 436.99L224.35 437.05L224.41 437.11L224.49 437.17L224.56 437.24L224.64 437.31L224.72 437.38L224.81 437.45L224.9 437.53L225 437.61L225.1 437.69L225.2 437.78L225.31 437.86L225.42 437.95L225.54 438.05L225.66 438.14L225.78 438.24L225.91 438.34L226.04 438.44L226.18 438.55L226.32 438.66L226.46 438.77L226.61 438.88L226.99 439.06L227.36 439.22L227.72 439.36L228.07 439.48L228.42 439.59L228.75 439.68L229.09 439.74L229.41 439.8L229.72 439.84L230.03 439.86L230.33 439.88L230.62 439.88L230.9 439.86L231.18 439.84L231.44 439.81L231.7 439.77L231.95 439.72L232.19 439.66L232.42 439.6L232.64 439.53L232.85 439.46L233.05 439.38L233.24 439.3L233.42 439.22L233.59 439.14L233.75 439.05L233.91 438.97L234.05 438.88L234.18 438.8L234.3 438.72L234.41 438.65L234.5 438.58L234.59 438.51L234.67 438.45L234.73 438.4L234.78 438.35L234.83 438.32L234.86 438.29L234.87 438.27L234.88 438.27L236.54 436.63L238.31 434.9L240.19 433.09L242.18 431.19L244.25 429.21L246.43 427.15L248.69 425.02L251.03 422.82L253.45 420.54L255.94 418.2L258.51 415.8L261.14 413.34L263.83 410.82L266.57 408.24L269.36 405.62L272.2 402.94L275.08 400.23L278 397.47L280.95 394.67L283.92 391.83L286.92 388.96L289.93 386.07L292.96 383.14L296 380.19L299.04 377.22L302.07 374.24L305.11 371.23L308.13 368.22L311.13 365.2L314.12 362.17L317.08 359.14L320.01 356.11L322.91 353.08L325.77 350.06L328.58 347.05L331.35 344.05L334.06 341.07L336.72 338.1L339.31 335.16L341.84 332.24L344.01 329.6L346.07 326.87L348.02 324.06L349.86 321.19L351.58 318.24L353.2 315.24L354.69 312.18L356.07 309.07L357.32 305.92L358.44 302.73L359.44 299.5L360.31 296.25L361.05 292.98L361.66 289.69L362.12 286.4L362.45 283.1L362.64 279.8L362.68 276.5L362.58 273.22L362.33 269.96L361.93 266.72L361.37 263.51L360.67 260.34L359.8 257.21L358.77 254.12L357.58 251.09L356.23 248.11L354.7 245.2L353.01 242.36L351.15 239.59L349.11 236.91L346.9 234.3L344.51 231.8L341.94 229.38L339.18 227.08L336.24 224.88L333.11 222.79L329.78 220.83L326.27 218.99L322.56 217.28L318.77 215.77L315.02 214.51L311.31 213.49L307.64 212.69L304.02 212.11L300.44 211.74L296.92 211.56L293.46 211.56L290.05 211.74ZM461.6 345.73L462.28 345.73L462.96 345.73L463.66 345.74L464.37 345.76L465.09 345.79L465.82 345.82L466.57 345.85L467.33 345.9L468.11 345.94L468.91 345.99L469.73 346.04L470.57 346.09L471.43 346.14L472.31 346.2L473.21 346.25L474.14 346.3L475.09 346.34L476.07 346.39L477.08 346.43L478.11 346.46L479.18 346.49L480.27 346.52L481.4 346.53L482.56 346.54L483.75 346.54L484.98 346.53L486.25 346.51L487.55 346.48L488.89 346.44L490.27 346.39L491.69 346.32L493.15 346.24L494.65 346.14L496.2 346.03L497.79 345.9L499.43 345.76L501.11 345.59L502.84 345.41L504.62 345.21L506.45 344.99L508.6 344.27L510.73 343.51L512.85 342.71L514.95 341.86L517.04 340.96L519.1 340.01L521.14 339.01L523.16 337.96L525.15 336.85L527.12 335.68L529.05 334.46L530.94 333.17L532.81 331.82L534.63 330.4L536.41 328.92L538.15 327.37L539.85 325.75L541.5 324.05L543.1 322.28L544.65 320.44L546.14 318.51L547.58 316.51L548.96 314.42L550.28 312.25L551.54 310L552.73 307.65L553.86 305.22L554.91 302.7L555.9 300.08L556.81 297.37L557.64 294.56L558.4 291.65L559.07 288.64L559.67 285.52L560.18 282.31L560.6 278.98L560.93 275.55L561.17 272.01L561.31 268.36L561.36 264.59L561.26 260.49L560.98 256.54L560.52 252.74L559.89 249.09L559.1 245.59L558.17 242.22L557.09 238.99L555.89 235.9L554.57 232.94L553.15 230.12L551.62 227.42L550.01 224.85L548.31 222.4L546.55 220.08L544.73 217.87L542.86 215.78L540.95 213.81L539.01 211.94L537.05 210.19L535.08 208.54L533.11 207L531.15 205.56L529.21 204.22L527.3 202.97L525.43 201.82L523.61 200.77L521.85 199.8L520.15 198.92L518.54 198.12L517.01 197.41L515.59 196.77L514.27 196.21L513.07 195.73L511.99 195.32L511.06 194.98L510.27 194.71L509.64 194.5L509.18 194.35L508.9 194.27L508.8 194.24L461.6 194.24L461.6 345.73Z" id="a3QR0kJXOG"></path></defs><g><g><g><use xlink:href="#a3QR0kJXOG" opacity="1" fill="#ffffff" fill-opacity="1"></use><g><use xlink:href="#a3QR0kJXOG" opacity="1" fill-opacity="0" stroke="#000000" stroke-width="1" stroke-opacity="0"></use></g></g></g></g></svg>