<?xml version="1.0" encoding="UTF-8" standalone="no"?>
<!DOCTYPE svg PUBLIC "-//W3C//DTD SVG 1.1//EN" "http://www.w3.org/Graphics/SVG/1.1/DTD/svg11.dtd">
<svg version="1.1" xmlns="http://www.w3.org/2000/svg" xmlns:xlink="http://www.w3.org/1999/xlink" preserveAspectRatio="xMidYMid meet" viewBox="0 0 640 640" width="640" height="640"><defs><path d="M91.29 451.1L91.47 452.9L91.73 454.68L92.05 456.44L92.44 458.18L92.9 459.89L93.43 461.57L94.01 463.22L94.66 464.84L95.37 466.43L96.14 467.99L96.97 469.51L97.85 470.99L98.79 472.44L99.78 473.85L100.83 475.22L101.92 476.54L103.06 477.83L104.26 479.07L105.49 480.26L106.78 481.4L108.1 482.5L109.47 483.54L110.88 484.53L112.33 485.47L113.81 486.35L115.33 487.18L116.89 487.95L118.48 488.66L120.1 489.31L121.75 489.9L123.44 490.42L125.14 490.88L126.88 491.27L128.64 491.59L130.42 491.85L132.22 492.03L134.05 492.14L135.89 492.18L137.74 492.14L139.56 492.03L141.37 491.85L143.15 491.59L144.91 491.27L146.64 490.88L148.35 490.42L150.03 489.9L151.68 489.31L153.3 488.66L154.89 487.95L156.45 487.18L157.97 486.35L159.46 485.47L160.91 484.53L162.31 483.54L163.68 482.5L165.01 481.4L166.29 480.26L167.53 479.07L168.72 477.83L169.87 476.54L170.96 475.22L172 473.85L173 472.44L173.93 470.99L174.82 469.51L175.64 467.99L176.41 466.43L177.12 464.84L177.77 463.22L178.36 461.57L178.88 459.89L179.34 458.18L179.73 456.44L180.06 454.68L180.31 452.9L180.49 451.1L180.61 449.27L180.64 447.43L180.64 333.68L300.52 333.68L466.09 574.45L462.56 574.98L458.58 575.46L454.63 575.82L450.71 576.05L446.83 576.16L442.99 576.15L439.18 576.02L435.41 575.78L431.67 575.41L427.98 574.93L424.31 574.34L420.69 573.63L417.1 572.81L413.56 571.88L410.05 570.84L406.57 569.69L403.14 568.43L399.79 567.08L396.56 565.66L393.44 564.18L390.43 562.63L387.53 561.01L384.73 559.33L382.03 557.59L379.43 555.8L376.92 553.94L374.49 552.03L372.16 550.07L369.9 548.05L367.72 545.98L365.62 543.86L363.58 541.7L361.61 539.49L359.71 537.24L357.86 534.95L356.07 532.61L354.33 530.24L352.64 527.83L350.99 525.39L349.38 522.91L347.81 520.4L346.27 517.87L344.76 515.3L343.28 512.71L341.82 510.09L340.38 507.46L338.95 504.8L337.53 502.12L336.12 499.42L334.71 496.71L333.3 493.98L331.89 491.24L330.47 488.5L329.04 485.74L327.6 482.97L326.13 480.2L324.64 477.43L323.14 474.68L321.62 472L320.09 469.38L318.54 466.82L316.99 464.33L315.43 461.9L313.86 459.54L312.27 457.24L310.69 455.01L309.09 452.86L307.48 450.77L305.87 448.76L304.26 446.82L302.64 444.95L301.01 443.16L299.38 441.44L297.75 439.81L296.11 438.25L294.47 436.77L292.83 435.37L291.19 434.05L289.55 432.81L287.91 431.66L286.27 430.59L284.63 429.61L282.99 428.72L281.36 427.91L279.73 427.19L278.1 426.57L276.48 426.03L274.86 425.59L273.25 425.24L271.65 424.98L270.05 424.82L268.46 424.76L266.88 424.79L265.3 424.93L263.74 425.16L262.19 425.49L260.64 425.93L259.14 426.47L257.69 427.14L256.31 427.91L254.99 428.79L253.72 429.77L252.51 430.86L251.36 432.04L250.26 433.32L249.21 434.69L248.21 436.15L247.26 437.69L246.36 439.31L245.51 441.01L244.7 442.79L243.93 444.63L243.21 446.54L242.53 448.52L241.88 450.56L241.28 452.65L240.71 454.8L240.17 457L239.67 459.25L239.2 461.54L238.75 463.87L238.34 466.24L237.96 468.64L237.6 471.08L237.27 473.54L236.96 476.02L236.67 478.52L236.4 481.04L236.15 483.58L235.91 486.12L235.7 488.67L235.49 491.23L235.3 493.78L235.12 496.33L234.96 498.87L234.8 501.41L234.64 503.93L234.47 506.44L234.24 508.96L233.95 511.47L233.6 513.98L233.19 516.48L232.71 518.97L232.16 521.45L231.54 523.91L230.84 526.35L230.06 528.77L229.19 531.17L228.24 533.54L227.2 535.88L226.06 538.18L224.83 540.46L223.49 542.69L222.05 544.88L220.51 547.03L218.85 549.13L217.08 551.18L215.19 553.18L213.19 555.12L211.05 557L208.79 558.83L206.41 560.59L203.88 562.28L201.22 563.91L198.42 565.46L195.48 566.94L192.39 568.33L189.14 569.65L185.75 570.89L182.19 572.04L178.48 573.1L174.6 574.07L170.56 574.94L166.34 575.71L161.95 576.39L157.39 576.96L152.64 577.43L149.42 577.64L146.21 577.71L143 577.64L139.79 577.44L136.6 577.1L133.41 576.63L130.22 576.02L127.04 575.27L123.87 574.39L120.71 573.37L117.55 572.21L114.39 570.92L111.25 569.49L108.11 567.93L104.97 566.23L101.84 564.39L98.72 562.42L95.61 560.31L92.5 558.06L89.39 555.68L86.3 553.16L83.21 550.51L80.12 547.72L77.04 544.79L73.97 541.73L70.91 538.53L67.85 535.19L64.79 531.72L61.75 528.11L58.71 524.37L55.67 520.49L52.64 516.47L49.62 512.32L46.61 508.03L43.6 503.6L40.59 499.04L37.6 494.34L34.61 489.51L31.62 484.54L28.64 479.43L28.74 480.08L25.16 472.78L20.52 462.21L16.33 451.45L12.58 440.5L9.31 429.37L6.51 418.07L4.19 406.61L2.37 395L1.06 383.25L0.27 371.37L0 359.36L0.09 355.3L0 351.36L0.27 339.68L1.06 328.12L2.37 316.69L4.19 305.4L6.51 294.25L9.31 283.26L12.58 272.44L16.33 261.79L20.52 251.32L25.16 241.05L30.24 230.98L35.74 221.12L41.65 211.48L47.97 202.07L54.68 192.9L61.78 183.97L69.24 175.3L77.07 166.9L85.25 158.77L91.14 153.35L91.14 447.43L91.18 449.27L91.18 449.27L91.29 451.1ZM518.72 129.2L528.2 136.14L537.38 143.38L546.23 150.93L554.75 158.77L562.93 166.9L570.76 175.3L578.22 183.97L585.32 192.9L592.03 202.07L598.35 211.48L604.26 221.12L609.76 230.98L614.84 241.05L619.48 251.32L623.67 261.79L627.42 272.44L630.69 283.26L633.49 294.25L635.81 305.4L637.63 316.69L638.94 328.12L639.73 339.68L640 351.36L639.73 363.04L638.95 374.36L638.93 374.59L638.29 379.81L637.59 384.96L636.82 390.05L635.99 395.06L635.08 400L634.11 404.87L633.07 409.67L631.97 414.4L631.01 418.19L630.75 419.24L630.66 419.55L627.42 430.28L623.67 440.92L619.48 451.39L614.84 461.66L609.76 471.74L604.26 481.6L601.31 486.41L600.61 487.44L598.24 490.83L595.79 494.15L593.28 497.39L590.7 500.57L588.05 503.67L585.34 506.71L582.55 509.67L579.71 512.56L576.79 515.39L573.81 518.14L570.76 520.82L567.64 523.43L562.93 527.22L558.25 530.85L553.59 534.34L549.27 537.45L393.01 310.23L397.4 308.41L403.08 305.79L408.65 302.94L414.09 299.89L419.4 296.62L424.57 293.15L429.61 289.48L434.5 285.62L439.24 281.57L443.83 277.34L448.26 272.93L452.52 268.35L456.61 263.61L460.52 258.7L464.26 253.64L467.8 248.43L471.16 243.08L474.32 237.59L477.27 231.96L480.02 226.2L482.56 220.32L484.88 214.33L486.98 208.22L488.85 202L490.49 195.68L491.89 189.27L493.05 182.76L493.96 176.17L494.61 169.49L495.01 162.75L495.14 155.93L495.01 149.11L494.61 142.36L493.96 135.69L493.05 129.1L491.89 122.59L490.49 116.18L489.06 110.68L498.86 116.3L508.94 122.59L508.94 122.59L518.72 129.2ZM319.71 68.58L323.49 69.03L327.3 69.6L331.15 70.31L335.01 71.16L338.87 72.16L342.72 73.32L346.55 74.66L350.33 76.18L354.06 77.89L357.72 79.8L361.31 81.92L364.79 84.26L368.18 86.83L371.43 89.64L374.56 92.7L377.53 96.01L380.34 99.6L382.98 103.46L385.42 107.61L387.67 112.05L389.69 116.8L391.49 121.87L393.04 127.26L394.33 132.99L395.35 139.06L396.08 145.48L396.52 152.27L396.64 159.43L396.55 164.27L396.34 168.98L395.99 173.57L395.51 178.03L394.91 182.37L394.18 186.58L393.31 190.67L392.32 194.64L391.2 198.48L389.96 202.19L388.58 205.78L387.07 209.25L385.44 212.59L383.68 215.81L381.78 218.9L379.76 221.87L377.61 224.71L375.34 227.43L372.93 230.02L370.39 232.49L367.73 234.83L364.94 237.05L362.01 239.15L358.96 241.12L355.78 242.96L352.48 244.68L349.04 246.28L345.47 247.75L341.78 249.1L337.96 250.32L334 251.42L329.92 252.39L325.71 253.24L321.38 253.96L316.91 254.56L312.31 255.03L307.59 255.38L302.74 255.6L299.01 255.68L180.64 255.68L180.64 96.17L184.12 94.65L195.49 90.15L207.09 86.04L218.9 82.32L230.92 79.01L243.14 76.1L255.54 73.62L268.12 71.57L280.87 69.96L293.77 68.8L306.82 68.09L311.83 68L312.34 68.02L315.99 68.25L315.99 68.25L319.71 68.58Z" id="a7n3dEb1of"></path></defs><g><g><g><use xlink:href="#a7n3dEb1of" opacity="1" fill="#ffffff" fill-opacity="1"></use></g></g></g></svg>