<?xml version="1.0" encoding="UTF-8" standalone="no"?>
<!DOCTYPE svg PUBLIC "-//W3C//DTD SVG 1.1//EN" "http://www.w3.org/Graphics/SVG/1.1/DTD/svg11.dtd">
<svg version="1.1" xmlns="http://www.w3.org/2000/svg" xmlns:xlink="http://www.w3.org/1999/xlink" preserveAspectRatio="xMidYMid meet" viewBox="0 0 640 640" width="640" height="640"><defs><path d="M0 472.62L54.06 566.07C54.07 566.07 54.07 566.07 54.07 566.07C64.72 587.16 86.56 601.63 111.79 601.63C111.8 601.63 111.81 601.63 111.84 601.63L111.84 601.63L470.64 601.63L396.18 472.62L0 472.62Z" id="c1SrJDuPO"></path><path d="M640 473.28C640 460.36 636.19 448.34 629.67 438.24C608.64 401.69 440.44 109.29 419.41 72.74C408.56 52.3 387.06 38.37 362.3 38.37C354.89 38.37 317.85 38.37 251.18 38.37L575.94 601.07C606.66 547.87 623.72 518.31 627.14 512.4C637.23 495.42 640 487.91 640 473.28" id="bDwfbV82E"></path><path d="M343.23 380.95L198.08 129.54L52.92 380.95L343.23 380.95Z" id="d5rIBAICa"></path></defs><g><g><g><g><use xlink:href="#c1SrJDuPO" opacity="1" fill="#ffffff" fill-opacity="1"></use><g><use xlink:href="#c1SrJDuPO" opacity="1" fill-opacity="0" stroke="#000000" stroke-width="1" stroke-opacity="0"></use></g></g><g><use xlink:href="#bDwfbV82E" opacity="1" fill="#ffffff" fill-opacity="1"></use><g><use xlink:href="#bDwfbV82E" opacity="1" fill-opacity="0" stroke="#000000" stroke-width="1" stroke-opacity="0"></use></g></g><g><use xlink:href="#d5rIBAICa" opacity="1" fill="#ffffff" fill-opacity="1"></use><g><use xlink:href="#d5rIBAICa" opacity="1" fill-opacity="0" stroke="#000000" stroke-width="1" stroke-opacity="0"></use></g></g></g></g></g></svg>