<?xml version="1.0" encoding="UTF-8" standalone="no"?>
<!DOCTYPE svg PUBLIC "-//W3C//DTD SVG 1.1//EN" "http://www.w3.org/Graphics/SVG/1.1/DTD/svg11.dtd">
<svg version="1.1" xmlns="http://www.w3.org/2000/svg" xmlns:xlink="http://www.w3.org/1999/xlink" preserveAspectRatio="xMidYMid meet" viewBox="0 0 640 640" width="640" height="640"><defs><path d="M333.31 0.12L339.41 0.25L345.49 0.41L351.55 0.6L357.58 0.83L363.59 1.08L369.56 1.37L375.5 1.7L381.4 2.06L387.26 2.45L393.08 2.88L398.86 3.34L404.58 3.84L410.26 4.38L415.88 4.95L421.45 5.56L426.96 6.2L432.4 6.89L437.79 7.61L443.1 8.37L448.34 9.16L453.51 10L458.61 10.88L463.62 11.79L468.56 12.75L473.41 13.74L478.17 14.78L482.85 15.86L487.43 16.98L491.91 18.14L496.3 19.35L500.59 20.59L504.77 21.88L508.85 23.22L512.81 24.6L516.67 26.02L520.41 27.49L524.03 29L527.53 30.55L527.7 30.63L528.19 30.87L528.99 31.27L530.08 31.83L531.44 32.57L533.06 33.5L534.92 34.6L536.99 35.9L539.28 37.39L541.75 39.08L544.39 40.98L547.18 43.09L550.11 45.42L553.16 47.97L556.32 50.75L559.56 53.77L562.86 57.02L566.22 60.52L569.61 64.26L573.02 68.26L576.43 72.52L579.82 77.05L583.18 81.85L586.48 86.92L589.72 92.28L592.87 97.92L595.93 103.86L598.86 110.09L601.65 116.63L604.29 123.47L606.76 130.63L609.05 138.11L611.12 145.92L612.98 154.06L614.6 162.53L615.96 171.34L617.05 180.5L617.85 190.01L618.34 199.88L618.51 210.11L618.51 210.3L618.51 210.86L618.52 211.78L618.52 213.05L618.53 214.65L618.53 216.57L618.53 218.8L618.51 221.33L618.5 224.14L618.47 227.23L618.43 230.57L618.38 234.16L618.32 237.98L618.24 242.02L618.14 246.27L618.02 250.72L617.89 255.35L617.73 260.16L617.55 265.12L617.35 270.22L617.12 275.46L616.86 280.82L616.58 286.29L616.26 291.86L615.91 297.51L615.53 303.22L615.11 309L614.66 314.82L614.17 320.68L613.64 326.55L613.06 332.44L612.45 338.32L611.79 344.18L611.09 350.01L610.33 355.8L609.53 361.54L608.68 367.21L607.78 372.8L606.83 378.29L605.82 383.68L605.05 387.08L604.05 390.48L602.84 393.9L601.41 397.31L599.77 400.73L597.92 404.14L595.87 407.54L593.63 410.93L591.2 414.31L588.58 417.66L585.78 420.98L582.8 424.28L579.66 427.54L576.34 430.77L572.86 433.95L569.23 437.09L565.44 440.18L561.5 443.21L557.42 446.18L553.2 449.1L548.85 451.94L544.36 454.71L539.76 457.41L535.03 460.03L530.19 462.57L525.24 465.02L520.18 467.38L515.02 469.64L509.77 471.8L504.43 473.86L498.99 475.81L493.48 477.65L487.89 479.37L482.23 480.98L476.5 482.45L470.71 483.8L464.86 485.02L458.96 486.1L453.01 487.03L447.01 487.83L443.88 488.2L440.74 488.57L437.61 488.94L434.48 489.31L431.35 489.67L428.22 490.02L425.1 490.38L421.97 490.72L418.84 491.06L415.71 491.4L412.59 491.72L409.46 492.04L406.32 492.35L403.19 492.65L400.06 492.94L396.92 493.22L393.78 493.49L390.64 493.75L387.49 494L384.34 494.23L381.19 494.46L378.03 494.66L374.87 494.86L371.7 495.03L368.53 495.2L365.35 495.34L362.17 495.47L358.98 495.59L355.78 495.68L352.58 495.76L349.37 495.82L346.15 495.85L342.93 495.87L339.69 495.87L336.45 495.85L333.2 495.8L329.94 495.73L326.67 495.64L323.4 495.53L320.11 495.39L314.75 495.12L309.46 494.82L304.22 494.48L299.06 494.11L293.97 493.71L288.96 493.28L284.02 492.82L279.17 492.34L274.41 491.84L269.74 491.32L265.17 490.79L260.69 490.24L256.32 489.67L252.06 489.1L247.9 488.52L243.87 487.93L239.95 487.35L236.15 486.76L232.48 486.17L228.95 485.59L225.54 485.01L222.28 484.44L219.16 483.88L216.18 483.34L213.36 482.81L210.68 482.29L208.17 481.8L205.82 481.33L203.63 480.88L201.62 480.46L199.77 480.07L198.11 479.72L196.62 479.39L195.33 479.1L194.22 478.85L193.3 478.64L192.58 478.47L192.06 478.35L191.75 478.28L191.64 478.25L191.64 478.77L191.64 479.3L191.65 479.82L191.65 480.34L191.66 480.86L191.67 481.37L191.68 481.89L191.69 482.4L191.71 482.92L191.72 483.43L191.74 483.94L191.76 484.45L191.78 484.96L191.8 485.46L191.82 485.97L191.85 486.47L191.87 486.97L191.9 487.47L191.93 487.97L191.96 488.47L192 488.97L192.03 489.46L192.07 489.96L192.11 490.45L192.15 490.94L192.19 491.43L192.23 491.92L192.27 492.4L192.32 492.89L192.37 493.37L192.42 493.85L192.47 494.33L192.52 494.81L192.58 495.29L192.63 495.77L192.69 496.24L192.75 496.71L192.81 497.18L192.87 497.65L192.93 498.12L193.73 503.31L194.71 508.26L195.88 512.97L197.23 517.45L198.75 521.7L200.43 525.73L202.28 529.55L204.29 533.16L206.45 536.57L208.75 539.78L211.2 542.81L213.79 545.65L216.5 548.31L219.35 550.8L222.31 553.13L225.4 555.3L228.59 557.31L231.89 559.18L235.29 560.91L238.78 562.5L242.37 563.96L246.04 565.3L249.8 566.52L253.62 567.63L257.52 568.63L261.49 569.54L265.51 570.35L269.59 571.08L273.71 571.72L277.89 572.3L282.1 572.8L286.34 573.24L290.62 573.62L294.92 573.95L299.23 574.24L303.56 574.48L307.9 574.7L312.25 574.89L316.59 575.06L320.92 575.21L325.28 575.33L329.61 575.38L333.9 575.36L338.16 575.29L342.38 575.17L346.55 574.99L350.68 574.76L354.75 574.48L358.76 574.16L362.71 573.81L366.59 573.41L370.4 572.99L374.14 572.53L377.79 572.05L381.37 571.54L384.85 571.02L388.25 570.47L391.54 569.92L394.74 569.35L397.83 568.78L400.82 568.2L403.68 567.62L406.43 567.05L409.06 566.48L411.57 565.92L413.94 565.37L416.18 564.84L418.27 564.33L420.23 563.84L422.04 563.37L423.69 562.94L425.19 562.53L426.53 562.16L427.7 561.83L428.71 561.55L429.54 561.3L430.2 561.11L430.67 560.97L430.96 560.88L431.05 560.85L433.45 613.51L433.37 613.55L433.14 613.67L432.76 613.87L432.23 614.13L431.55 614.46L430.72 614.86L429.75 615.31L428.63 615.82L427.36 616.38L425.94 617L424.39 617.65L422.68 618.35L420.84 619.08L418.85 619.85L416.72 620.65L414.46 621.47L412.05 622.32L409.5 623.19L406.82 624.07L404 624.96L401.04 625.86L397.95 626.76L394.72 627.66L391.36 628.56L387.87 629.45L384.24 630.33L380.49 631.2L376.6 632.05L372.58 632.87L368.44 633.67L364.17 634.44L359.77 635.18L355.24 635.88L350.59 636.54L345.82 637.15L340.92 637.72L335.9 638.23L330.76 638.69L325.49 639.08L320.11 639.42L317.09 639.57L314.03 639.71L310.94 639.82L307.81 639.91L304.65 639.98L301.45 640.02L298.21 640.04L294.94 640.04L291.64 640.01L288.3 639.95L284.92 639.87L281.51 639.76L278.07 639.62L274.59 639.45L271.07 639.26L267.53 639.03L263.94 638.78L260.33 638.49L256.68 638.18L253 637.83L249.28 637.44L245.53 637.03L241.75 636.58L237.93 636.09L234.08 635.57L230.2 635.01L226.29 634.42L222.34 633.79L218.36 633.12L214.35 632.42L210.3 631.67L206.23 630.88L202.12 630.06L197.98 629.19L193.81 628.28L189.61 627.33L185.38 626.34L181.11 625.3L176.82 624.22L172.49 623.09L163.27 620.41L154.43 617.36L145.96 613.96L137.86 610.2L130.12 606.11L122.72 601.68L115.67 596.93L108.95 591.87L102.56 586.5L96.48 580.85L90.72 574.9L85.25 568.68L80.08 562.2L75.2 555.46L70.59 548.47L66.25 541.24L62.17 533.78L58.35 526.1L54.77 518.21L51.43 510.12L48.31 501.84L45.42 493.38L42.74 484.74L40.27 475.93L38 466.97L35.91 457.87L34 448.63L32.27 439.26L30.7 429.77L29.29 420.17L28.03 410.48L26.91 400.69L25.92 390.82L25.06 380.88L24.31 370.88L23.67 360.82L23.13 350.72L22.69 340.58L22.33 330.42L22.05 320.24L21.97 317.22L21.91 314.21L21.85 311.21L21.79 308.22L21.74 305.24L21.7 302.26L21.66 299.3L21.62 296.36L21.59 293.42L21.56 290.49L21.54 287.58L21.52 284.68L21.5 281.79L21.49 278.92L21.48 276.06L21.48 273.21L21.47 270.38L21.47 267.57L21.47 264.76L21.48 261.98L21.48 259.21L21.49 256.45L21.5 253.72L21.51 251L21.52 248.3L21.53 245.61L21.54 242.95L21.55 240.3L21.57 237.67L21.58 235.06L21.59 232.47L21.6 229.9L21.61 227.35L21.63 224.82L21.64 222.32L21.64 219.83L21.65 217.37L21.66 214.92L21.66 212.5L21.66 210.11L21.83 199.88L22.32 190.01L23.12 180.5L24.21 171.34L25.57 162.53L27.19 154.06L29.04 145.92L31.12 138.11L33.4 130.63L35.88 123.47L38.52 116.63L41.31 110.09L44.24 103.86L47.29 97.92L50.45 92.28L53.68 86.92L56.99 81.85L60.35 77.05L63.74 72.52L67.15 68.26L70.56 64.26L73.95 60.52L77.31 57.02L80.61 53.77L83.85 50.75L87 47.97L90.05 45.42L92.99 43.09L95.78 40.98L98.42 39.08L100.89 37.39L103.18 35.9L105.25 34.6L107.11 33.5L108.73 32.57L110.09 31.83L111.18 31.27L111.98 30.87L112.47 30.63L112.64 30.55L116.14 29L119.76 27.49L123.5 26.02L127.35 24.6L131.32 23.22L135.4 21.88L139.58 20.59L143.86 19.35L148.25 18.14L152.74 16.98L157.31 15.86L161.99 14.78L166.75 13.74L171.6 12.75L176.53 11.79L181.55 10.88L186.64 10L191.81 9.16L197.05 8.37L202.36 7.61L207.74 6.89L213.19 6.2L218.69 5.56L224.26 4.95L229.88 4.38L235.55 3.84L241.28 3.34L247.05 2.88L252.87 2.45L258.73 2.06L264.63 1.7L270.57 1.37L276.54 1.08L282.54 0.83L288.57 0.6L294.63 0.41L300.71 0.25L306.81 0.12L312.92 0.02L319.06 -0.04L321.07 -0.04L327.2 0.02L333.31 0.12ZM407.43 174.26L409.41 174.49L411.34 174.78L413.21 175.14L415.03 175.56L416.8 176.05L418.51 176.61L420.16 177.23L421.76 177.91L423.31 178.66L424.8 179.48L426.24 180.36L427.63 181.3L428.96 182.31L430.23 183.38L431.45 184.52L432.62 185.72L433.73 186.99L434.79 188.32L435.79 189.72L436.74 191.18L437.64 192.71L438.48 194.3L439.27 195.95L440 197.67L440.68 199.45L441.3 201.3L441.87 203.21L442.39 205.18L442.85 207.22L443.26 209.32L443.61 211.49L443.91 213.72L444.15 216.01L444.34 218.37L444.48 220.79L444.56 223.27L444.59 225.82L444.59 389.01L511.2 389.01L511.2 220.88L511.18 218.32L511.13 215.78L511.05 213.27L510.93 210.78L510.79 208.33L510.61 205.89L510.39 203.49L510.15 201.11L509.87 198.76L509.56 196.43L509.21 194.13L508.83 191.86L508.42 189.62L507.98 187.4L507.5 185.2L506.99 183.04L506.45 180.9L505.88 178.78L505.27 176.7L504.63 174.64L503.95 172.6L503.25 170.59L502.51 168.61L501.73 166.66L500.93 164.73L500.09 162.83L499.22 160.96L498.31 159.11L497.37 157.29L496.4 155.49L495.4 153.73L494.36 151.98L493.29 150.27L492.19 148.58L491.05 146.92L489.88 145.28L488.68 143.68L487.45 142.09L486.18 140.54L484.88 139.01L483.51 137.51L482.12 136.05L480.7 134.63L479.27 133.25L477.82 131.9L476.34 130.59L474.85 129.31L473.33 128.08L471.79 126.88L470.23 125.71L468.65 124.59L467.05 123.5L465.42 122.45L463.78 121.44L462.11 120.46L460.43 119.53L458.72 118.63L456.99 117.77L455.24 116.94L453.47 116.16L451.68 115.41L449.86 114.7L448.03 114.03L446.17 113.39L444.29 112.8L442.39 112.24L440.47 111.72L438.53 111.24L436.57 110.79L434.58 110.39L432.58 110.02L430.55 109.69L428.5 109.4L426.43 109.15L424.34 108.94L422.23 108.76L420.09 108.63L417.94 108.53L415.76 108.47L413.56 108.45L411.02 108.48L408.51 108.55L406.03 108.67L403.58 108.85L401.17 109.07L398.78 109.34L396.43 109.66L394.1 110.03L391.81 110.44L389.55 110.91L387.32 111.43L385.13 111.99L382.96 112.6L380.83 113.27L378.73 113.98L376.66 114.74L374.62 115.55L372.61 116.41L370.64 117.32L368.69 118.28L366.78 119.29L364.9 120.34L363.06 121.45L361.24 122.6L359.46 123.81L357.71 125.06L355.99 126.36L354.3 127.71L352.65 129.11L351.03 130.56L349.44 132.06L347.88 133.61L346.35 135.21L344.86 136.85L343.4 138.55L341.98 140.29L340.58 142.08L339.22 143.93L337.89 145.82L336.6 147.76L320 175.57L303.41 147.76L302.11 145.82L300.78 143.93L299.42 142.08L298.03 140.29L296.6 138.55L295.14 136.85L293.65 135.21L292.12 133.61L290.57 132.06L288.98 130.56L287.35 129.11L285.7 127.71L284.01 126.36L282.3 125.06L280.54 123.81L278.76 122.6L276.95 121.45L275.1 120.34L273.22 119.29L271.31 118.28L269.37 117.32L267.39 116.41L265.38 115.55L263.35 114.74L261.28 113.98L259.17 113.27L257.04 112.6L254.87 111.99L252.68 111.43L250.45 110.91L248.19 110.44L245.9 110.03L243.58 109.66L241.22 109.34L238.84 109.07L236.42 108.85L233.97 108.67L231.49 108.55L228.98 108.48L226.44 108.45L224.24 108.47L222.07 108.53L219.91 108.63L217.78 108.76L215.66 108.94L213.57 109.15L211.5 109.4L209.45 109.69L207.43 110.02L205.42 110.39L203.44 110.79L201.47 111.24L199.53 111.72L197.61 112.24L195.71 112.8L193.83 113.39L191.98 114.03L190.14 114.7L188.33 115.41L186.53 116.16L184.76 116.94L183.01 117.77L181.28 118.63L179.57 119.53L177.89 120.46L176.22 121.44L174.58 122.45L172.96 123.5L171.35 124.59L169.77 125.71L168.21 126.88L166.67 128.08L165.16 129.31L163.66 130.59L162.19 131.9L160.73 133.25L159.3 134.63L157.89 136.05L156.5 137.51L155.13 139.01L153.83 140.54L152.56 142.09L151.32 143.68L150.12 145.28L148.95 146.92L147.81 148.58L146.71 150.27L145.64 151.98L144.6 153.73L143.6 155.49L142.63 157.29L141.69 159.11L140.79 160.96L139.91 162.83L139.08 164.73L138.27 166.66L137.5 168.61L136.76 170.59L136.05 172.6L135.38 174.64L134.73 176.7L134.13 178.78L133.55 180.9L133.01 183.04L132.5 185.2L132.02 187.4L131.58 189.62L131.17 191.86L130.79 194.13L130.45 196.43L130.13 198.76L129.85 201.11L129.61 203.49L129.39 205.89L129.21 208.33L129.07 210.78L128.95 213.27L128.87 215.78L128.82 218.32L128.8 220.88L128.8 389.01L195.41 389.01L195.41 225.82L195.44 223.27L195.52 220.79L195.66 218.37L195.85 216.01L196.09 213.72L196.39 211.49L196.74 209.32L197.15 207.22L197.61 205.18L198.13 203.21L198.7 201.3L199.32 199.45L200 197.67L200.73 195.95L201.52 194.3L202.36 192.71L203.26 191.18L204.21 189.72L205.21 188.32L206.27 186.99L207.38 185.72L208.55 184.52L209.77 183.38L211.05 182.31L212.38 181.3L213.76 180.36L215.2 179.48L216.69 178.66L218.24 177.91L219.84 177.23L221.49 176.61L223.2 176.05L224.97 175.56L226.79 175.14L228.66 174.78L230.59 174.49L232.57 174.26L234.6 174.09L236.69 174L238.84 173.96L241.21 174L243.52 174.12L245.77 174.31L247.96 174.58L250.09 174.93L252.16 175.36L254.18 175.86L256.13 176.44L258.02 177.1L259.85 177.84L261.62 178.65L263.33 179.54L264.99 180.51L266.58 181.55L268.11 182.68L269.58 183.87L270.99 185.15L272.35 186.5L273.64 187.93L274.87 189.44L276.04 191.02L277.15 192.68L278.21 194.42L279.2 196.23L280.13 198.12L281 200.09L281.81 202.13L282.56 204.25L283.26 206.44L283.89 208.72L284.46 211.06L284.97 213.49L285.42 215.99L285.81 218.57L286.14 221.22L286.41 223.95L286.62 226.76L286.77 229.64L286.86 232.6L286.89 235.63L286.89 324.95L353.11 324.95L353.11 235.63L353.14 232.6L353.23 229.64L353.38 226.76L353.59 223.95L353.86 221.22L354.19 218.57L354.58 215.99L355.03 213.49L355.55 211.06L356.12 208.72L356.75 206.44L357.44 204.25L358.19 202.13L359 200.09L359.87 198.12L360.81 196.23L361.8 194.42L362.85 192.68L363.96 191.02L365.13 189.44L366.36 187.93L367.66 186.5L369.01 185.15L370.42 183.87L371.89 182.68L373.42 181.55L375.02 180.51L376.67 179.54L378.38 178.65L380.15 177.84L381.98 177.1L383.87 176.44L385.83 175.86L387.84 175.36L389.91 174.93L392.04 174.58L394.23 174.31L396.48 174.12L398.79 174L401.16 173.96L403.31 174L405.4 174.09L407.43 174.26Z" id="bANGzo6W"></path></defs><g><g><g><use xlink:href="#bANGzo6W" opacity="1" fill="#feffff" fill-opacity="1"></use><g><use xlink:href="#bANGzo6W" opacity="1" fill-opacity="0" stroke="#000000" stroke-width="1" stroke-opacity="0"></use></g></g></g></g></svg>