<?xml version="1.0" encoding="UTF-8" standalone="no"?>
<!DOCTYPE svg PUBLIC "-//W3C//DTD SVG 1.1//EN" "http://www.w3.org/Graphics/SVG/1.1/DTD/svg11.dtd">
<svg version="1.1" xmlns="http://www.w3.org/2000/svg" xmlns:xlink="http://www.w3.org/1999/xlink" preserveAspectRatio="xMidYMid meet" viewBox="0 0 640 640" width="640" height="640"><defs><path d="M241.13 92.72L240.9 96.29L240.67 100.04L240.44 103.95L240.22 108.01L240 112.2L239.8 116.51L239.6 120.93L239.43 125.43L239.27 130.02L239.14 134.66L239.03 139.35L238.95 144.08L238.9 148.82L238.89 153.57L238.91 158.32L238.97 163.04L239.08 167.72L239.23 172.35L239.42 176.91L239.67 181.4L239.98 185.79L240.34 190.07L240.76 194.23L241.24 198.25L241.79 202.12L242.41 205.83L243.1 209.36L243.86 212.69L244.7 215.82L245.62 218.72L246.62 221.39L247.71 223.81L248.89 225.96L250.16 227.84L251.52 229.42L252.98 230.69L254.54 231.65L255.82 229.83L257.45 227.6L259.41 224.97L261.71 221.99L264.34 218.69L267.3 215.1L270.58 211.26L274.18 207.19L278.1 202.93L282.32 198.52L286.86 193.99L291.7 189.37L296.84 184.69L302.27 179.99L307.99 175.3L314 170.66L320.3 166.09L326.87 161.63L333.72 157.32L340.84 153.18L348.23 149.26L355.88 145.58L363.79 142.17L371.95 139.07L380.36 136.32L389.02 133.94L397.93 131.98L407.07 130.45L416.45 129.41L426.05 128.87L435.89 128.87L445.94 129.45L456.22 130.64L466.71 132.47L477.41 134.98L488.31 138.2L499.42 142.16L510.73 146.89L522.23 152.43L533.92 158.81L545.52 166.27L556.38 173.87L566.53 181.6L575.96 189.46L584.69 197.44L592.73 205.52L600.1 213.69L606.81 221.94L612.87 230.26L618.3 238.65L623.09 247.08L627.28 255.56L630.86 264.06L633.86 272.59L636.28 281.12L638.14 289.65L639.44 298.16L640.21 306.65L640.45 315.11L640.18 323.52L639.4 331.88L638.14 340.17L636.39 348.38L634.19 356.51L631.53 364.54L628.42 372.46L624.89 380.26L620.95 387.93L616.6 395.46L611.86 402.84L606.74 410.06L601.25 417.11L595.41 423.97L589.23 430.64L582.71 437.11L575.88 443.36L568.74 449.39L561.31 455.18L553.6 460.72L545.62 466.01L540.14 469.35L534.47 472.78L528.61 476.3L522.56 479.9L516.31 483.56L509.87 487.26L503.23 491L496.39 494.76L489.35 498.53L482.1 502.29L474.65 506.04L466.98 509.75L459.11 513.42L451.02 517.03L442.72 520.58L434.19 524.03L425.45 527.4L416.49 530.65L407.3 533.78L397.89 536.78L388.25 539.62L378.38 542.31L368.27 544.82L357.93 547.14L347.35 549.26L336.54 551.16L325.48 552.84L314.17 554.28L302.63 555.46L290.83 556.38L278.78 557.02L266.49 557.36L253.93 557.4L241.12 557.12L228.05 556.51L214.72 555.55L201.13 554.24L187.27 552.55L173.15 550.48L158.75 548.01L157.88 547.79L157.05 547.56L156.26 547.31L155.52 547.04L154.8 546.74L154.13 546.44L153.5 546.11L152.91 545.76L152.36 545.39L151.84 545.01L151.37 544.61L150.94 544.18L150.54 543.74L150.18 543.28L149.87 542.8L149.59 542.31L149.35 541.79L149.16 541.26L149 540.7L148.88 540.13L148.8 539.54L148.76 538.93L148.75 538.3L148.79 537.65L148.87 536.99L148.99 536.3L149.14 535.6L149.34 534.88L149.57 534.14L149.85 533.38L150.16 532.6L150.51 531.8L150.91 530.98L151.34 530.15L151.81 529.29L152.32 528.42L152.87 527.53L153.46 526.62L154.09 525.69L154.76 524.74L147.14 522.28L139.72 519.74L132.49 517.13L125.45 514.45L118.61 511.7L111.96 508.88L105.51 505.98L99.24 503.02L93.18 499.98L87.3 496.87L81.62 493.69L76.13 490.43L70.84 487.11L65.73 483.71L60.83 480.24L56.11 476.7L51.59 473.08L47.26 469.4L43.13 465.64L39.19 461.81L35.44 457.91L31.89 453.94L28.53 449.9L25.36 445.78L22.39 441.6L19.61 437.34L17.02 433.01L14.63 428.6L12.43 424.13L10.42 419.58L8.61 414.96L6.99 410.27L5.56 405.51L4.33 400.68L3.29 395.77L2.45 390.8L1.8 385.75L1.34 380.63L1.07 375.44L1 370.17L1.31 362.38L2.14 354.88L3.48 347.69L5.3 340.79L7.58 334.18L10.31 327.86L13.46 321.81L17.01 316.04L20.94 310.53L25.23 305.29L29.86 300.31L34.82 295.57L40.07 291.09L45.6 286.85L51.39 282.85L57.41 279.08L63.65 275.54L70.09 272.22L76.7 269.12L83.47 266.23L90.38 263.55L97.39 261.07L104.5 258.79L111.69 256.7L118.92 254.8L126.19 253.07L133.47 251.53L140.74 250.15L147.98 248.94L155.17 247.9L162.28 247.01L169.31 246.27L176.22 245.67L183.01 245.22L189.63 244.9L196.09 244.72L202.35 244.65L208.39 244.71L214.2 244.89L219.76 245.17L217.49 241.27L215.3 237.37L213.17 233.49L211.12 229.63L209.14 225.77L207.23 221.93L205.39 218.11L203.62 214.29L201.92 210.49L200.29 206.71L198.73 202.93L197.24 199.17L195.82 195.43L194.47 191.69L193.2 187.97L191.99 184.26L190.86 180.57L189.79 176.89L188.8 173.22L187.87 169.56L187.02 165.92L186.24 162.29L185.53 158.68L184.89 155.08L184.32 151.49L183.82 147.91L183.39 144.35L183.03 140.8L182.74 137.27L182.52 133.74L182.37 130.23L182.3 126.74L182.29 123.25L182.36 119.79L182.49 116.33L182.7 112.89L182.97 109.45L183.32 106.04L183.74 102.63L184.23 99.24L185.11 98.62L186.02 98.02L186.95 97.42L187.92 96.83L188.91 96.26L189.94 95.7L190.99 95.15L192.07 94.6L193.18 94.08L194.32 93.56L195.49 93.05L196.68 92.55L197.91 92.07L199.16 91.59L200.44 91.13L201.75 90.68L203.09 90.24L204.46 89.81L205.85 89.39L207.28 88.99L208.73 88.59L210.21 88.21L211.72 87.83L213.26 87.47L214.83 87.12L216.43 86.78L218.05 86.45L219.71 86.14L221.39 85.83L223.1 85.53L224.84 85.25L226.61 84.98L228.41 84.72L230.24 84.47L232.09 84.23L233.97 84L235.89 83.78L237.83 83.58L239.8 83.38L241.79 83.2L241.58 86.16L241.36 89.34L241.36 89.34L241.13 92.72ZM193.19 271.98L130.53 275.31L210.25 533.98L276.59 533.98L337.25 346.98L389.59 514.64L483.59 474.98L574.59 217.98L505.59 217.98L435.59 449.65L360.59 217.98L323.25 217.98L250.53 449.65L250.53 449.65L193.19 271.98Z" id="ivCa5BKfz"></path></defs><g><g><g><use xlink:href="#ivCa5BKfz" opacity="1" fill="#ffffff" fill-opacity="1"></use><g><use xlink:href="#ivCa5BKfz" opacity="1" fill-opacity="0" stroke="#000000" stroke-width="0" stroke-opacity="1"></use></g></g></g></g></svg>